<svg width="99" height="33" viewBox="0 0 99 33" fill="none" xmlns="http://www.w3.org/2000/svg">
<path fill-rule="evenodd" clip-rule="evenodd" d="M92.0187 0.97784H5.98939C0.854734 0.97784 0 2.7109 0 6.83243V27.1822C0 31.3006 1.75868 33 5.98355 33H92.0191C96.2474 33 98.0676 31.2982 98.0676 27.1769V6.83243C98.0676 2.7109 96.2464 0.97784 92.0187 0.97784Z" fill="black"/>
<path fill-rule="evenodd" clip-rule="evenodd" d="M25.5679 20.9105C25.0739 21.9777 24.8375 22.454 24.2017 23.3971C23.3142 24.7143 22.0637 26.354 20.5142 26.3677C19.137 26.3802 18.7835 25.494 16.9148 25.5041C15.0461 25.514 14.6557 26.3833 13.2784 26.371C11.7288 26.3571 10.5438 24.8762 9.65632 23.5597C7.17492 19.8776 6.91567 15.5564 8.44579 13.2592C9.53351 11.6266 11.2488 10.6709 12.8622 10.6709C14.5046 10.6709 15.5372 11.549 16.8952 11.549C18.2124 11.549 19.0154 10.6695 20.9141 10.6695C22.3495 10.6695 23.8703 11.4312 24.9541 12.749C21.4036 14.6455 21.9802 19.589 25.5679 20.9105Z" fill="white"/>
<path fill-rule="evenodd" clip-rule="evenodd" d="M19.4737 9.19867C20.1632 8.33558 20.6875 7.1161 20.4974 5.87034C19.3707 5.94597 18.0521 6.6449 17.2822 7.55612C16.5836 8.38352 16.007 9.61044 16.2315 10.8027C17.4617 10.8398 18.7346 10.1235 19.4737 9.19867Z" fill="white"/>
<path fill-rule="evenodd" clip-rule="evenodd" d="M43.1036 19.6783C42.6939 19.6783 42.3237 19.8099 41.989 20.0747C41.6546 20.3433 41.4363 20.691 41.333 21.1214C41.2825 21.3231 41.256 21.4866 41.256 21.6176V22.8314C41.256 23.3626 41.421 23.8118 41.7566 24.177C42.0896 24.5387 42.5245 24.7225 43.0573 24.7225C43.6819 24.7225 44.1732 24.4888 44.5215 24.0174C44.8704 23.5469 45.0435 22.9269 45.0435 22.1544C45.0435 21.4458 44.8815 20.8599 44.5526 20.401C44.1916 19.9229 43.71 19.6783 43.1036 19.6783ZM73.5287 19.5774C72.8633 19.5774 72.3549 19.8653 72.0078 20.4449C71.707 20.9218 71.5595 21.5041 71.5595 22.1927C71.5595 22.864 71.707 23.4361 72.0078 23.9142C72.3633 24.4927 72.8667 24.7806 73.5163 24.7806C74.1485 24.7806 74.6486 24.4888 75.0057 23.8962C75.3156 23.4122 75.4703 22.8314 75.4703 22.1648C75.4703 21.4975 75.3218 20.9218 75.026 20.4449C74.6722 19.8653 74.1761 19.5774 73.5287 19.5774ZM51.3262 19.6783C50.9143 19.6783 50.5463 19.8099 50.2112 20.0747C49.8777 20.3433 49.6528 20.691 49.5496 21.1214C49.4984 21.3231 49.4686 21.4866 49.4686 21.6176V22.8314C49.4686 23.3626 49.6386 23.8118 49.9736 24.177C50.3065 24.5387 50.7438 24.7225 51.275 24.7225C51.9044 24.7225 52.3926 24.4888 52.7419 24.0174C53.0917 23.5469 53.2677 22.9269 53.2677 22.1544C53.2677 21.4458 53.1026 20.8599 52.7753 20.401C52.4134 19.9229 51.9308 19.6783 51.3262 19.6783ZM34.145 17.0831H34.1159C34.0114 17.554 33.8495 18.1808 33.6216 19.0223L32.7592 21.6981H35.5449L34.6711 19.0223C34.5766 18.751 34.4003 18.0249 34.145 17.0831ZM86.1389 19.498C85.5962 19.498 85.1553 19.769 84.815 20.2066C84.5382 20.5559 84.3723 20.9446 84.3222 21.5097H87.7859C87.7949 20.9446 87.6897 20.5724 87.4641 20.2203C87.1755 19.7718 86.7329 19.498 86.1389 19.498ZM36.809 25.7479L35.84 22.8283H32.4674L31.5425 25.7479H29.82L33.1578 15.6704H35.223L38.5809 25.7479H36.809ZM45.7006 25.0399C45.0825 25.6775 44.3108 25.9979 43.3935 25.9979C42.4004 25.9979 41.7391 25.6534 41.256 24.9605V28.856H39.6135V20.9356C39.6135 20.1559 39.5755 19.4377 39.5333 18.4958H40.9959L41.0877 19.7202H41.1168C41.674 18.8726 42.5141 18.4051 43.6447 18.4051C44.5273 18.4051 45.2618 18.7358 45.8555 19.4178C46.4437 20.0965 46.7398 20.9908 46.7398 22.1006C46.7398 23.3446 46.3942 24.3179 45.7006 25.0399ZM53.921 25.0399C53.3013 25.6775 52.5284 25.9979 51.6087 25.9979C50.6185 25.9979 49.9517 25.6534 49.4686 24.9605V28.856H47.8261V20.9356C47.8261 20.1559 47.7956 19.4377 47.7556 18.4958H49.2141L49.3103 19.7202H49.3389C49.897 18.8726 50.7357 18.4051 51.8645 18.4051C52.7477 18.4051 53.4842 18.7358 54.0742 19.4178C54.6658 20.0965 54.9603 20.9908 54.9603 22.1006C54.9603 23.3446 54.6146 24.3179 53.921 25.0399ZM63.5276 25.0964C62.8488 25.6876 61.9076 25.9814 60.7003 25.9814C59.5814 25.9814 58.6867 25.7703 58.0111 25.352L58.3973 24.0016C59.1254 24.4199 59.9254 24.6321 60.7958 24.6321C61.4247 24.6321 61.9109 24.4927 62.2603 24.2196C62.6073 23.9455 62.782 23.5781 62.782 23.1121C62.782 22.7075 62.6382 22.3621 62.3526 22.0803C62.0625 21.8007 61.5891 21.5425 60.9212 21.3C59.1063 20.6416 58.1972 19.6761 58.1972 18.4057C58.1972 17.5756 58.5142 16.893 59.1569 16.3634C59.7985 15.8344 60.6476 15.5684 61.7059 15.5684C62.6496 15.5684 63.4355 15.7297 64.0626 16.0477L63.643 17.3689C63.0581 17.0597 62.3932 16.9028 61.6517 16.9028C61.0655 16.9028 60.6059 17.0483 60.2752 17.3219C59.9988 17.5756 59.8599 17.8805 59.8599 18.2395C59.8599 18.637 60.0192 18.9687 60.3367 19.2326C60.6147 19.4717 61.1178 19.7303 61.8439 20.0101C62.7399 20.3577 63.3944 20.7704 63.8168 21.242C64.2363 21.7119 64.4478 22.2963 64.4478 22.9954C64.4478 23.8568 64.139 24.5591 63.5276 25.0964ZM69.372 19.8144H67.6328V23.2986C67.6328 24.1984 67.9192 24.6445 68.5661 24.6445C68.8636 24.6445 69.0881 24.6234 69.2849 24.5738L69.3223 25.8015C68.9933 25.9216 68.5582 25.9824 68.0243 25.9824C67.3708 25.9824 66.8364 25.7899 66.468 25.3969C66.0951 25.0086 65.8937 24.3524 65.8937 23.4319V19.8144H64.8309V18.4958H65.8937V17.204L67.6328 16.7236V18.4958H69.372V19.8144ZM76.2105 24.8897C75.521 25.6282 74.6075 25.9979 73.4708 25.9979C72.3706 25.9979 71.4931 25.643 70.8418 24.9324C70.1911 24.224 69.8666 23.325 69.8666 22.2458C69.8666 21.1165 70.2017 20.1897 70.8739 19.4705C71.5471 18.7473 72.4504 18.392 73.5895 18.392C74.6919 18.392 75.5738 18.7435 76.2409 19.4573C76.8754 20.1437 77.1937 21.037 77.1937 22.1263C77.1937 23.2503 76.8674 24.1672 76.2105 24.8897ZM82.2222 19.9641C82.1256 19.9349 81.8692 19.9229 81.6858 19.9229C81.1009 19.9229 80.6441 20.1377 80.3252 20.5671C80.0473 20.9481 79.9034 21.4213 79.9034 22.0063V25.7479H78.2609V20.8329C78.2609 19.9974 78.2252 19.2493 78.1959 18.4958H79.6426L79.7044 20.0028H79.75C79.9239 19.5319 80.1994 19.1036 80.5813 18.8158C80.9509 18.5527 81.3658 18.4096 81.7966 18.4096C81.9491 18.4096 82.1256 18.4003 82.2222 18.42V19.9641ZM89.3112 22.6399H84.3222C84.3419 23.2992 84.5832 23.8773 85.0467 24.2565C85.4663 24.5975 86.0097 24.7531 86.6778 24.7531C87.418 24.7531 88.0885 24.6309 88.6948 24.3972L88.9563 25.5206C88.251 25.8233 87.4124 25.9679 86.4455 25.9679C85.288 25.9679 84.3768 25.6362 83.7148 24.9712C83.0533 24.3063 82.7198 23.4127 82.7198 22.293C82.7198 21.1904 83.0292 20.2767 83.6434 19.5432C84.293 18.764 85.1654 18.3745 86.2616 18.3745C87.3426 18.3745 88.1577 18.7639 88.7099 19.543C89.1498 20.1651 89.372 20.962 89.372 21.8727C89.372 22.1605 89.3506 22.4515 89.3112 22.6399Z" fill="white"/>
<path d="M32.5504 9.56186C32.5504 10.2745 32.471 10.9174 32.2962 11.4674C32.1928 11.8082 32.0419 12.1412 31.8988 12.397H33.941V8.74078H32.5504V9.56186ZM34.9184 7.9584V12.4201L35.427 12.4434L35.3713 14.4728H34.6244L34.5688 13.1792H31.3187L31.2631 14.4728H30.5162L30.4684 12.4434L30.8976 12.4201C31.1042 12.0561 31.2949 11.6766 31.414 11.266C31.5809 10.7083 31.6446 10.0731 31.6446 9.3217V7.9584H34.9184Z" fill="white"/>
<path d="M36.8815 11.297C36.8815 12.0251 37.247 12.575 37.843 12.575C38.3993 12.575 38.7886 12.0406 38.7886 11.2814C38.7886 10.6928 38.5185 10.0189 37.851 10.0189C37.1597 10.0189 36.8815 10.6695 36.8815 11.297ZM39.7978 11.2583C39.7978 12.6447 38.7966 13.2645 37.8113 13.2645C36.7146 13.2645 35.8723 12.5286 35.8723 11.3203C35.8723 10.0808 36.7067 9.32169 37.8748 9.32169C39.027 9.32169 39.7978 10.1118 39.7978 11.2583Z" fill="white"/>
<path d="M43.4456 13.063C43.239 13.1561 42.8337 13.2568 42.349 13.2568C41.1412 13.2568 40.3544 12.5054 40.3544 11.3357C40.3544 10.2048 41.1491 9.32172 42.5079 9.32172C42.8655 9.32172 43.231 9.39923 43.4536 9.49992L43.2788 10.2125C43.1198 10.1428 42.8894 10.0654 42.5397 10.0654C41.7928 10.0654 41.3478 10.5999 41.3557 11.2892C41.3557 12.0639 41.8722 12.5054 42.5397 12.5054C42.8814 12.5054 43.1198 12.4357 43.3106 12.3583L43.4456 13.063Z" fill="white"/>
<path d="M47.1567 9.4069V10.1428H45.9965V13.1792H45.0191V10.1428H43.8589V9.4069H47.1567Z" fill="white"/>
<path d="M48.4918 9.40691L49.1911 11.4286C49.2706 11.661 49.35 11.9476 49.4057 12.1645H49.4295C49.4931 11.9476 49.5646 11.6688 49.6361 11.4209L50.2401 9.40691H51.2889L50.3195 11.9786C49.7871 13.3884 49.4295 14.0158 48.9686 14.4031C48.5872 14.7362 48.1899 14.8601 47.9435 14.8912L47.721 14.0855C47.8879 14.0468 48.0945 13.9616 48.2932 13.8221C48.476 13.706 48.6905 13.4814 48.8256 13.2257C48.8653 13.156 48.8891 13.1018 48.8891 13.0553C48.8891 13.0166 48.8812 12.9624 48.8335 12.8694L47.4191 9.40691H48.4918Z" fill="white"/>
<path d="M55.2625 9.4069V13.1792H54.2771V10.1428H52.8229V13.1792H51.8455V9.4069H55.2625Z" fill="white"/>
<path d="M57.2732 9.4069V10.8476H58.7671V9.4069H59.7445V13.1792H58.7671V11.5913H57.2732V13.1792H56.2958V9.4069H57.2732Z" fill="white"/>
<path d="M61.5487 11.297C61.5487 12.0251 61.9143 12.575 62.5102 12.575C63.0664 12.575 63.4558 12.0406 63.4558 11.2814C63.4558 10.6928 63.1857 10.0189 62.5181 10.0189C61.8268 10.0189 61.5487 10.6695 61.5487 11.297ZM64.465 11.2583C64.465 12.6447 63.4637 13.2645 62.4784 13.2645C61.3818 13.2645 60.5395 12.5286 60.5395 11.3203C60.5395 10.0808 61.3739 9.32169 62.542 9.32169C63.6942 9.32169 64.465 10.1118 64.465 11.2583Z" fill="white"/>
<path d="M67.8584 10.9329H68.2637C68.7643 10.9329 69.1776 10.7935 69.1776 10.4372C69.1776 10.1351 68.9074 9.97242 68.3273 9.97242C68.1366 9.97242 68.0094 9.98796 67.8584 10.0034V10.9329ZM67.8505 12.606C68.0094 12.6215 68.1287 12.6293 68.3273 12.6293C68.7722 12.6293 69.3126 12.5131 69.3126 12.0716C69.3126 11.6456 68.8836 11.5062 68.2717 11.5062H67.8505V12.606ZM66.9049 9.45347C67.191 9.40695 67.779 9.36042 68.3114 9.36042C68.9631 9.36042 70.139 9.44565 70.139 10.3133C70.139 10.7935 69.7577 11.0647 69.3444 11.1498V11.1653C69.9166 11.2505 70.3139 11.5603 70.3139 12.0871C70.3139 13.1251 68.9153 13.2258 68.1366 13.2258C67.6519 13.2258 67.1353 13.1948 66.9049 13.1715V9.45347Z" fill="white"/>
</svg>
