<svg width="99" height="33" viewBox="0 0 99 33" fill="none" xmlns="http://www.w3.org/2000/svg">
<path fill-rule="evenodd" clip-rule="evenodd" d="M92.0186 0.97784H5.98939C0.854734 0.97784 0 2.7109 0 6.83243V27.1822C0 31.3006 1.75868 33 5.98355 33H92.019C96.2473 33 98.0676 31.2982 98.0676 27.1769V6.83243C98.0676 2.7109 96.2464 0.97784 92.0186 0.97784Z" fill="black"/>
<path d="M8.41075 7.33935C8.19063 7.41451 8.01929 7.61503 8.01929 7.87412V26.55C8.01929 26.807 8.18777 27.0063 8.40519 27.0829L18.583 17.2085L8.41075 7.33935Z" fill="#00D6FF"/>
<path d="M21.4503 14.4267L8.89084 7.38283C8.73355 7.29468 8.56088 7.28818 8.41071 7.33942L18.5829 17.2086L21.4503 14.4267Z" fill="#00F076"/>
<path d="M8.89096 27.0416L21.4551 19.995L18.583 17.2086L8.40527 27.083C8.55673 27.1364 8.73174 27.1308 8.89096 27.0416Z" fill="#FF3A44"/>
<path d="M21.4551 19.995L25.5408 17.7035C25.9295 17.4856 25.9295 16.9389 25.5408 16.7208L21.4503 14.4267L18.583 17.2086L21.4551 19.995Z" fill="#FFD000"/>
<path d="M77.5596 25.3265H78.9837V16.1939H77.5596V25.3265ZM90.1511 19.4817L88.5772 23.4269H88.5022L86.8533 19.4817H85.3544L87.8277 25.0342L86.4037 28.1027H87.8277L91.6501 19.4817H90.1511ZM82.2814 24.3036C81.8318 24.3036 81.1572 24.0844 81.1572 23.5C81.1572 22.7693 81.9816 22.5501 82.6562 22.5501C83.2558 22.5501 83.5555 22.6963 83.9303 22.8424C83.7805 23.7191 83.0309 24.3036 82.2814 24.3036ZM82.4314 19.2625C81.382 19.2625 80.3327 19.7008 79.9581 20.6506L81.2322 21.162C81.532 20.6506 81.9816 20.5045 82.5063 20.5045C83.2557 20.5045 83.9303 20.9428 84.0053 21.6735V21.7465C83.7805 21.6004 83.1809 21.3812 82.5812 21.3812C81.2322 21.3812 79.8831 22.1118 79.8831 23.4269C79.8831 24.6689 81.0073 25.4725 82.2065 25.4725C83.1809 25.4725 83.6305 25.0342 84.0053 24.5959H84.0802V25.3265H85.4293V21.8196C85.2794 20.2122 84.0053 19.2625 82.4313 19.2625H82.4314ZM73.8122 20.5776H71.7885V17.4359H73.8122C74.8614 17.4359 75.4611 18.3127 75.4611 18.9702C75.3861 19.7739 74.7866 20.5776 73.8122 20.5776ZM73.7372 16.1939H70.3645V25.3265H71.7885V21.8926H73.7372C75.3112 21.8926 76.8101 20.7967 76.8101 19.0432C76.8101 17.2898 75.3112 16.1939 73.7372 16.1939ZM55.4496 24.3036C54.4753 24.3036 53.6508 23.5 53.6508 22.4041C53.6508 21.3081 54.4753 20.5045 55.4496 20.5045C56.4239 20.5045 57.1734 21.3081 57.1734 22.4041C57.1734 23.5 56.4239 24.3036 55.4496 24.3036ZM57.0984 19.9931C56.7238 19.6277 56.1241 19.2625 55.3747 19.2625C53.8007 19.2625 52.3017 20.6506 52.3017 22.4041C52.3017 24.1575 53.7258 25.4725 55.3747 25.4725C56.1241 25.4725 56.7238 25.1073 57.0235 24.742H57.0984V25.1803C57.0984 26.3493 56.424 27.0068 55.3746 27.0068C54.5501 27.0068 53.9506 26.4224 53.8007 25.9109L52.6015 26.4224C52.9762 27.226 53.8756 28.2488 55.4496 28.2488C57.0984 28.2488 58.4475 27.299 58.4475 25.0342V19.4817H57.0984V19.9931ZM59.3469 25.3265H60.771V16.1939H59.3469V25.3265ZM62.8696 22.331C62.8696 21.162 63.844 20.5045 64.5184 20.5045C65.0431 20.5045 65.5677 20.7967 65.7177 21.162L62.8696 22.331ZM67.2166 21.3081C66.9168 20.5776 66.1673 19.3355 64.5184 19.3355C62.8696 19.3355 61.5205 20.5776 61.5205 22.477C61.5205 24.2305 62.8696 25.6187 64.6684 25.6187C66.0924 25.6187 66.9918 24.742 67.2916 24.2305L66.2423 23.5C65.8675 24.0114 65.4179 24.3766 64.6684 24.3766C63.9188 24.3766 63.4692 24.0844 63.0944 23.4269L67.3666 21.6735L67.2166 21.3081ZM33.1896 20.2853V21.6004H36.4125C36.3375 22.331 36.0377 22.9155 35.663 23.2807C35.2132 23.7191 34.4638 24.2305 33.1896 24.2305C31.166 24.2305 29.667 22.6963 29.667 20.7236C29.667 18.751 31.241 17.2167 33.1896 17.2167C34.2389 17.2167 35.0634 17.6552 35.663 18.1666L36.6373 17.2167C35.8128 16.4862 34.7636 15.9017 33.2645 15.9017C30.5664 15.9017 28.243 18.0935 28.243 20.7236C28.243 23.3538 30.5664 25.5456 33.2645 25.5456C34.7636 25.5456 35.8128 25.1073 36.7123 24.1575C37.6117 23.2807 37.9114 22.0387 37.9114 21.089C37.9114 20.7967 37.9114 20.5045 37.8365 20.2853H33.1896ZM41.509 24.3036C40.5347 24.3036 39.7102 23.5 39.7102 22.4041C39.7102 21.3081 40.5347 20.5045 41.509 20.5045C42.4834 20.5045 43.3078 21.2351 43.3078 22.4041C43.3078 23.5 42.4834 24.3036 41.509 24.3036ZM41.509 19.3355C39.7102 19.3355 38.2862 20.6506 38.2862 22.477C38.2862 24.2305 39.7102 25.6187 41.509 25.6187C43.3078 25.6187 44.7318 24.3036 44.7318 22.477C44.7318 20.5776 43.3078 19.3355 41.509 19.3355ZM48.4793 24.3036C47.5049 24.3036 46.6805 23.5 46.6805 22.4041C46.6805 21.3081 47.5049 20.5045 48.4793 20.5045C49.4536 20.5045 50.2781 21.2351 50.2781 22.4041C50.2781 23.5 49.4536 24.3036 48.4793 24.3036ZM48.4793 19.3355C46.6805 19.3355 45.2565 20.6506 45.2565 22.477C45.2565 24.2305 46.6805 25.6187 48.4793 25.6187C50.2781 25.6187 51.7021 24.3036 51.7021 22.477C51.7021 20.5776 50.2781 19.3355 48.4793 19.3355Z" fill="white"/>
<path d="M30.3527 11.9972H29.2791L29.8159 10.5526L30.3527 11.9972ZM29.5178 9.83102L28.1071 13.5042H28.73L29.0863 12.5623H30.5503L30.9015 13.5042H31.5247L30.114 9.83102H29.5178Z" fill="white"/>
<path d="M34.2029 11.974L34.2054 12.5104L32.4793 9.83102H31.7875V13.5042H32.3672V11.2319L32.3669 10.6934L34.1766 13.5042H34.7826V9.83102H34.2029V11.974Z" fill="white"/>
<path d="M36.5396 12.9391H35.9421V10.3961H36.5396C36.9451 10.3961 37.2702 10.5015 37.5059 10.7279C37.7412 10.9542 37.8605 11.2696 37.8605 11.6746C37.8605 12.0828 37.7413 12.3897 37.506 12.6142C37.2704 12.839 36.9453 12.9391 36.5396 12.9391ZM36.5396 9.83102H35.3624V13.5042H36.5396C37.1102 13.5042 37.5739 13.3279 37.9176 12.9911C38.2613 12.6544 38.4356 12.209 38.4356 11.6726C38.4356 11.1363 38.2613 10.6845 37.9176 10.3477C37.5738 10.0109 37.1102 9.83102 36.5396 9.83102Z" fill="white"/>
<path d="M40.7972 10.9505C40.7972 11.1201 40.7366 11.2527 40.6119 11.3636C40.4859 11.4755 40.3392 11.5263 40.1634 11.5263H39.4203V10.3961H40.194C40.3781 10.3961 40.5212 10.4449 40.6315 10.5646C40.7414 10.6842 40.7972 10.8078 40.7972 10.9505ZM41.1113 11.6384C41.2844 11.4403 41.3722 11.2089 41.3722 10.9505C41.3722 10.6338 41.253 10.3599 41.0179 10.1512C40.7841 9.94395 40.5034 9.83102 40.1838 9.83102H38.9373V13.5042H39.4203V12.0914H39.9034L40.8858 13.5042H41.546V13.4116L40.5316 12.002C40.7661 11.9444 40.9506 11.8223 41.1113 11.6384Z" fill="white"/>
<path d="M43.5786 13.0418C43.2035 13.0418 42.8812 12.913 42.6205 12.6589C42.3629 12.4014 42.2323 12.0686 42.2323 11.6699C42.2323 11.2713 42.3637 10.9394 42.623 10.6835C42.8822 10.4277 43.2036 10.298 43.5786 10.298C43.9536 10.298 44.2751 10.4277 44.5341 10.6835C44.7935 10.9394 44.9249 11.2713 44.9249 11.6699C44.9249 12.0686 44.7935 12.4005 44.5341 12.6564C44.2752 12.9121 43.9537 13.0418 43.5786 13.0418ZM43.5786 9.76726C43.0348 9.76726 42.5737 9.95308 42.208 10.3197C41.8425 10.6861 41.6572 11.1404 41.6572 11.6699C41.6572 12.1995 41.8425 12.6538 42.208 13.02C42.5736 13.3866 43.0347 13.5726 43.5786 13.5726C44.1223 13.5726 44.5835 13.3866 44.9493 13.02C45.3147 12.6537 45.4999 12.1994 45.4999 11.6699C45.4999 11.1437 45.3138 10.6903 44.9468 10.3223C44.5793 9.95403 44.1189 9.76726 43.5786 9.76726Z" fill="white"/>
<path d="M45.9904 13.5042H46.5701V9.83102H45.9904V13.5042Z" fill="white"/>
<path d="M48.3222 12.9391H47.7294V10.3961H48.3222C48.7277 10.3961 49.0528 10.5015 49.2884 10.7279C49.5237 10.9542 49.643 11.2696 49.643 11.6746C49.643 12.0828 49.5237 12.3897 49.2886 12.6142C49.053 12.839 48.7279 12.9391 48.3222 12.9391ZM48.3222 9.83102H47.1497V13.5042H48.3222C48.8928 13.5042 49.3564 13.3279 49.7001 12.9911C50.0438 12.6544 50.218 12.209 50.218 11.6726C50.218 11.1363 50.0438 10.6845 49.7001 10.3477C49.3563 10.0109 48.8927 9.83102 48.3222 9.83102Z" fill="white"/>
<path d="M51.7874 13.5042H52.3671V10.3961H54.0096V13.5042H54.4927V9.83102H51.7874V13.5042Z" fill="white"/>
<path d="M56.9031 11.3471C56.7928 11.4668 56.6498 11.5263 56.4656 11.5263H55.7488V10.3961H56.4656C56.6498 10.3961 56.7928 10.4449 56.9031 10.5646C57.013 10.6842 57.0689 10.8132 57.0689 10.9558C57.0689 11.1006 57.0146 11.2259 56.9031 11.3471ZM56.4555 9.83102H55.1691V13.5042H55.7488V12.0914H56.4555C56.7752 12.0914 57.0558 11.9677 57.2896 11.7605C57.5246 11.552 57.6439 11.2764 57.6439 10.9597C57.6439 10.6432 57.5246 10.3645 57.2896 10.1559C57.0557 9.94856 56.7752 9.83102 56.4555 9.83102Z" fill="white"/>
<path d="M58.6078 12.5104L58.6473 11.9725V9.83102H58.0676V13.5042H58.5996L60.398 10.6934L60.3865 11.2333V13.5042H60.9662V9.83102H60.2969L58.6078 12.5104Z" fill="white"/>
<path d="M62.029 12.0178C62.029 12.2651 61.9737 12.4708 61.8676 12.629C61.7605 12.7886 61.5886 12.9293 61.3628 13.0473L61.3145 13.0717L61.6363 13.5465L61.6742 13.5279C61.9725 13.3824 62.2153 13.1881 62.3689 12.9502C62.5224 12.712 62.6088 12.3981 62.6088 12.017V10.3961H63.9614V13.5041H64.5411V9.83099H62.029V12.0178Z" fill="white"/>
<path d="M66.9251 13.0418C66.5501 13.0418 66.2277 12.913 65.9671 12.6589C65.7095 12.4014 65.5789 12.0686 65.5789 11.6699C65.5789 11.2712 65.7104 10.9393 65.9695 10.6835C66.2287 10.4277 66.5502 10.298 66.9251 10.298C67.3001 10.298 67.6216 10.4277 67.8807 10.6835C68.14 10.9394 68.2714 11.2713 68.2714 11.6699C68.2714 12.0686 68.14 12.4005 67.8807 12.6564C67.6217 12.9121 67.3002 13.0418 66.9251 13.0418ZM66.9251 9.76726C66.3814 9.76726 65.9201 9.95308 65.5544 10.3197C65.189 10.686 65.0038 11.1403 65.0038 11.6699C65.0038 12.1995 65.1891 12.6539 65.5544 13.02C65.9201 13.3866 66.3813 13.5726 66.9251 13.5726C67.469 13.5726 67.9301 13.3866 68.2958 13.02C68.6613 12.6538 68.8465 12.1994 68.8465 11.6699C68.8465 11.1437 68.6603 10.6903 68.2932 10.3223C67.9257 9.95403 67.4655 9.76726 66.9251 9.76726Z" fill="white"/>
<path d="M73.6233 9.9301V9.83102H72.9381L71.5943 11.5096V9.83102H71.0146V11.5096L69.6936 9.85683L69.6869 9.83102H69.0822V9.9301L70.5259 11.7084L68.9856 13.4086V13.5042H69.6654L71.0146 11.9237V13.5042H71.5943V11.9237L72.9596 13.5042H73.6233V13.4086L72.1313 11.7084L73.6233 9.9301Z" fill="white"/>
<path d="M73.913 13.5042H76.1352V12.9391H74.4927V11.903H75.9419V11.4321H74.4927V10.3961H76.1352V9.83102H73.913V13.5042Z" fill="white"/>
<path d="M78.9372 11.3379H77.1981V9.83102H76.715V13.5042H77.1981V11.903H78.9372V13.5042H79.517V9.83102H78.9372V11.3379Z" fill="white"/>
<path d="M80.7383 12.5105L80.7729 11.9725V9.83102H80.1932V13.5042H80.7348L82.5284 10.6933L82.5121 11.2333V13.5042H83.0918V9.83102H82.4321L80.7383 12.5105Z" fill="white"/>
<path d="M83.6715 13.5042H85.8937V12.9391H84.2512V11.903H85.7971V11.4321H84.2512V10.3961H85.8937V9.83102H83.6715V13.5042Z" fill="white"/>
<path d="M89.4517 12.7829C89.3485 12.8958 89.217 12.9391 89.0501 12.9391H88.116V11.903H89.0297C89.2039 11.903 89.3405 11.9512 89.4473 12.063C89.5552 12.1758 89.6076 12.2869 89.6076 12.4213C89.6076 12.5561 89.5565 12.6684 89.4517 12.7829ZM89.3478 11.1981C89.2496 11.3029 89.1222 11.3379 88.9585 11.3379H88.116V10.3961H88.9789C89.1355 10.3961 89.2577 10.4368 89.3527 10.5397C89.4488 10.6443 89.4955 10.7432 89.4955 10.8679C89.4955 10.9924 89.4472 11.0918 89.3478 11.1981ZM89.9993 11.8991C89.8961 11.7689 89.7668 11.6706 89.614 11.6059C89.7365 11.5384 89.8383 11.4473 89.9171 11.3342C90.0122 11.1978 90.0604 11.0386 90.0604 10.8612C90.0604 10.5707 89.9497 10.3183 89.7314 10.1263C89.5145 9.93557 89.2544 9.83102 88.9585 9.83102H87.6329V13.5042H89.0297C89.3392 13.5042 89.6113 13.3978 89.8382 13.1988C90.0666 12.9986 90.1825 12.7403 90.1825 12.4367C90.1825 12.2352 90.1209 12.0525 89.9993 11.8991Z" fill="white"/>
</svg>
