<svg width="20" height="24" viewBox="0 0 20 24" fill="none" xmlns="http://www.w3.org/2000/svg">
<path fill-rule="evenodd" clip-rule="evenodd" d="M8.54941 5.51196H15.1147C18.5905 5.51196 19.9808 7.28846 19.7491 9.91458C19.4401 14.24 16.814 16.6344 13.3382 16.6344H11.5617C11.0983 16.6344 10.7893 16.9433 10.6349 17.7929L9.86247 22.7362C9.78523 23.0452 9.63076 23.2769 9.39904 23.2769H5.30538C4.91918 23.2769 4.7647 22.968 4.91918 22.35L7.39083 6.43883C7.46807 5.82092 7.85426 5.51196 8.54941 5.51196Z" fill="#1F9CD8"/>
<path fill-rule="evenodd" clip-rule="evenodd" d="M4.45576 0.0280151H11.0211C12.8748 0.0280151 15.0375 0.105254 16.505 1.34108C17.5091 2.1907 17.9726 3.58101 17.8953 5.04854C17.5091 10.0691 14.4968 12.8497 10.4804 12.8497H7.23636C6.69569 12.8497 6.30949 13.2359 6.15501 14.1627L5.22815 19.8784C5.15091 20.2646 4.99643 20.4963 4.68748 20.4963H0.671051C0.207618 20.4963 0.0531401 20.1874 0.207618 19.415L3.1427 1.10936C3.21994 0.41421 3.60613 0.0280151 4.45576 0.0280151Z" fill="#233E81"/>
<path fill-rule="evenodd" clip-rule="evenodd" d="M6.23224 13.6221L7.39082 6.36162C7.46806 5.74371 7.85426 5.43475 8.54941 5.43475H15.1147C16.1961 5.43475 17.0457 5.58923 17.7408 5.89819C17.0457 10.378 14.1878 12.8497 10.4031 12.8497H7.15911C6.77291 12.8497 6.46396 13.0814 6.23224 13.6221Z" fill="#27326E"/>
</svg>
