<svg width="24" height="22" viewBox="0 0 24 22" fill="none" xmlns="http://www.w3.org/2000/svg">
<path d="M7.41034 6.77377L17.6064 0.976841C17.2231 0.748015 16.7631 0.519189 16.3031 0.366638L7.41034 5.32454L3.50059 3.11255C3.19394 3.41765 2.96395 3.72276 2.65731 4.10413L7.41034 6.77377ZM19.7529 2.57862C19.4463 2.27352 19.1396 2.0447 18.7563 1.7396L7.41034 8.14673L1.96735 5.09571C1.81403 5.47709 1.6607 5.85847 1.43072 6.23984L7.41034 9.51968L19.7529 2.57862ZM7.41034 10.9689L1.04741 7.3077C0.970744 7.68907 0.81742 8.07045 0.740758 8.5281L7.41034 12.2656L21.3628 4.48551C21.1328 4.18041 20.9028 3.79903 20.5962 3.49393L7.41034 10.9689ZM23.2027 10.5875C23.2027 16.6896 18.143 21.7237 11.8567 21.7237C5.64712 21.7237 0.510773 16.7658 0.510773 10.5875V9.82479L7.33368 13.7148L21.8994 5.47709C22.7427 7.07887 23.2027 8.83321 23.2027 10.5875Z" fill="#2C9E48"/>
</svg>
