<svg width="29" height="26" viewBox="0 0 29 26" fill="none" xmlns="http://www.w3.org/2000/svg">
<path d="M6.54432 19.9627L6.2365 20.485C6.12671 20.1409 5.92765 19.7838 5.7994 19.5314C5.55314 20.0397 5.16289 20.0499 4.78735 20.0527C4.87046 18.8347 3.34128 17.6099 4.01336 16.2206C4.14743 15.9426 4.06056 15.6026 3.77086 15.4569C2.7448 14.9357 3.21986 17.0979 2.19448 17.1629C2.3908 16.9177 2.46502 16.4043 2.49443 16.3598C2.27622 16.4166 1.75361 16.7484 1.51899 16.3232C2.11821 15.997 2.29059 15.5062 2.38465 15.0133C2.50401 14.3898 2.55874 14.1011 2.68015 13.8446C2.80636 13.5707 3.00884 13.3333 3.44184 12.7717C3.33923 12.7874 2.1849 13.0303 1.92634 12.9092C3.92135 11.6841 3.47159 10.1258 6.51491 8.73685C5.71731 8.14447 4.9009 7.67213 5.4861 6.5397C6.31961 7.54114 7.90352 7.19467 8.75926 6.72918C7.91378 6.55988 6.82478 5.81564 6.56553 4.98657C6.88463 4.93732 7.29711 5.28276 7.53482 5.44386C7.64905 5.13809 7.69454 4.78204 8.06529 4.70475C7.57107 5.76399 8.54823 6.31465 9.48024 6.31909C9.62423 6.31909 10.2272 6.25924 10.2272 6.25924C10.1315 6.06087 9.74155 5.51979 10.0251 5.30055C10.2529 5.51466 10.5244 5.68533 10.7724 5.87515C12.5844 7.27744 9.91085 8.57781 8.81706 9.1678C7.10045 10.0954 7.55979 11.1984 8.27701 11.4806C8.27393 11.6061 8.19697 11.6611 8.07795 11.6998C7.57654 11.8674 7.10558 11.5096 6.70576 11.2801C6.73004 11.9724 6.68284 12.6376 7.4476 13.0186L6.9202 13.2115C7.37373 13.5556 7.51156 13.7382 8.05777 13.8094C7.80262 13.9329 7.48625 13.9308 7.21537 13.9561C7.28377 14.148 7.34021 14.4072 7.48351 14.5793C6.36579 14.7116 5.91876 14.0738 5.57332 14.1001C4.83626 14.1548 4.88209 15.5424 6.69618 15.5445L6.50807 15.8547C6.50807 15.8547 6.85214 16.0554 7.16646 16.0941C7.04607 16.1916 6.92944 16.3232 6.8282 16.4238L7.11789 16.6731C6.37776 16.8062 6.16775 16.0185 5.68755 16.3985C4.95529 16.9789 6.57031 18.2044 8.11899 18.0214C7.98868 18.188 7.62545 18.4328 7.46778 18.5604C8.73019 19.7527 8.10736 20.8749 8.62655 21.6971C7.53892 21.6249 6.73278 20.8263 6.54432 19.9627ZM7.96303 18.622C8.31326 18.3436 8.60261 18.2047 8.58893 17.5333C8.06324 17.8015 6.57134 17.7874 5.94818 16.9293C5.77204 16.6858 5.96015 16.563 6.13082 16.7549C6.55698 17.2385 7.34705 17.0193 7.63537 16.8794C7.58988 16.7138 7.46162 16.497 7.35389 16.4043C7.46162 16.2976 7.76637 16.1403 7.82964 15.868C7.66581 15.7794 7.03307 15.7162 7.03307 15.7162C7.13499 15.619 7.26154 15.4819 7.18595 15.1197C6.53953 15.3184 5.74091 15.0489 5.5593 14.8091C5.38076 14.5741 5.5634 14.3535 5.71252 14.5085C6.03471 14.8474 7.62272 15.2349 8.21373 14.6463C7.99415 14.5861 7.75234 14.3898 7.70822 14.2687C8.25477 14.214 8.6912 13.8911 8.72677 13.4889C8.42442 13.4889 7.85324 13.467 7.65931 13.3206C7.92165 13.2238 8.0865 13.1288 8.16927 12.8356C7.16954 12.7751 7.09053 12.0326 7.0854 11.9094C7.73593 12.285 8.88204 12.1188 8.58585 11.1936C8.04546 11.1649 7.49891 10.2883 8.98841 9.48212C10.3418 8.75019 11.8819 7.96012 11.7465 6.65906C11.6576 5.82761 10.2867 5.25917 10.113 4.83779C9.54112 5.11004 9.42517 5.42607 9.6834 5.95552C9.6834 5.95552 8.40971 6.08241 8.30916 5.29816C8.26504 4.94621 8.5 4.61685 8.75208 4.3658C8.60945 4.3658 7.64905 4.10894 7.3597 4.89115C6.82067 4.52382 6.361 4.53716 5.99811 4.92467C6.57681 5.26874 6.93525 6.44632 7.89189 6.79416C7.21126 7.16355 6.11098 7.00827 5.46866 5.87515C4.86123 6.79074 4.51168 7.6971 5.8141 8.66468C3.44286 9.74445 3.45996 11.8065 1.39757 12.7895C1.60723 13.3511 2.04844 13.3511 2.61004 13.2635C1.71804 14.4226 2.47802 15.6348 1.06683 16.1307C1.19851 16.603 1.46358 16.9796 1.98482 16.8418C1.83638 17.073 1.73891 17.0678 1.50838 17.322C2.27999 17.808 3.19524 17.4557 3.4025 15.8971C3.43978 15.619 3.82319 15.7928 3.69014 16.0657C2.81046 17.8849 5.03498 19.253 4.24798 20.5876C4.94263 20.5585 5.47037 20.5048 5.76075 20.2698C5.902 20.55 5.98648 20.8273 5.95639 21.1006C6.33945 21.023 6.47934 20.7952 6.50567 20.5366C6.75706 21.2682 7.65487 22.0511 9.09239 22.0511C8.33002 20.9659 9.03972 19.8635 7.96303 18.622Z" fill="#D0D5D6"/>
<path d="M4.55373 15.6126C4.81538 15.8858 5.13346 15.9139 5.7361 15.8756C5.07395 15.7959 4.70251 15.6348 4.47199 15.1953C4.43745 14.9689 4.41521 14.7264 4.4053 14.4668C4.38512 13.7704 4.61427 12.9407 5.09584 12.0326C5.09242 12.6024 5.54457 13.4982 6.55183 13.6473C5.64547 13.2512 5.11362 12.3592 5.40332 11.4967C5.59211 11.1947 5.80519 10.8834 6.0429 10.5674C6.16261 10.4145 6.27855 10.2674 6.39245 10.1303C6.27034 10.5708 6.80321 11.0257 7.1596 11.1016C6.96602 10.9132 6.55183 10.3006 7.50881 9.27693C7.24135 9.4028 6.94618 9.58168 6.7225 9.75713C8.46202 7.87738 9.89099 7.82505 10.548 6.8797C9.59651 7.52988 7.0782 7.8808 5.94679 7.57366C6.57132 7.99127 8.07656 7.95297 8.44424 7.87533C7.21672 9.06864 4.53697 10.3006 4.07319 11.3975C4.72645 10.6813 5.14817 10.5499 5.71319 10.3652C5.26822 11.0295 4.86737 11.614 4.59101 12.2915C3.87824 13.8399 2.92468 13.8593 2.86209 15.1368C3.18735 14.147 3.84712 13.8963 4.30474 13.2461C4.22368 13.6613 4.1864 14.121 4.20077 14.6528C4.21684 15.2305 4.33245 15.7381 4.51611 16.1919C4.4696 16.8237 4.52603 17.9017 5.24975 18.6135C4.75792 17.9906 4.65224 16.9789 4.69601 16.5842C5.2624 17.6777 6.87846 19.1874 7.6593 20.2025C6.87846 18.8973 4.96382 17.3723 4.55373 15.6126ZM22.435 10.3652C22.998 10.5506 23.4221 10.6813 24.0743 11.3975C23.6112 10.3006 20.9294 9.0683 19.7019 7.87498C20.0713 7.95262 21.5758 7.99127 22.2004 7.57366C21.07 7.8808 18.5507 7.52988 17.5988 6.8797C18.2565 7.82505 19.6848 7.87772 21.4247 9.75713C21.2017 9.58168 20.9058 9.4028 20.638 9.27693C21.5943 10.3006 21.1812 10.9121 20.9872 11.1016C21.344 11.0257 21.8761 10.5715 21.7547 10.1303C21.869 10.2674 21.9859 10.4145 22.1043 10.5674C22.3437 10.8834 22.5551 11.1947 22.7435 11.4967C23.0335 12.3592 22.5 13.2512 21.5964 13.6473C22.6036 13.4985 23.0558 12.6024 23.0506 12.0326C23.5322 12.9407 23.7631 13.7704 23.7412 14.4668C23.7326 14.7264 23.709 14.9689 23.6755 15.1953C23.444 15.6348 23.0725 15.7962 22.4128 15.8756C23.014 15.9139 23.3301 15.8858 23.5948 15.6126C23.1834 17.3723 21.2691 18.8967 20.4879 20.2025C21.2691 19.1874 22.8831 17.6777 23.4512 16.5842C23.4953 16.9789 23.3892 17.9906 22.8988 18.6135C23.6211 17.9017 23.6776 16.8237 23.6314 16.1916C23.8144 15.7374 23.9286 15.2305 23.9461 14.6528C23.9632 14.121 23.9231 13.6613 23.8424 13.2461C24.3001 13.8963 24.9598 14.147 25.2854 15.1368C25.2235 13.8593 24.27 13.8399 23.5558 12.2915C23.2805 11.614 22.8807 11.0295 22.435 10.3652Z" fill="#D0D5D6"/>
<path d="M25.6558 16.3599C25.6832 16.4043 25.7557 16.9177 25.9524 17.1633C24.9263 17.0979 25.4027 14.9357 24.3763 15.4569C24.0866 15.6026 24.0001 15.9426 24.1348 16.2207C24.8062 17.6099 23.2764 18.8347 23.3622 20.0527C22.9843 20.0499 22.5916 20.0397 22.3468 19.5314C22.2202 19.7838 22.0194 20.1409 21.9107 20.485L21.6035 19.9627C21.4134 20.8263 20.6076 21.6253 19.521 21.6971C20.0371 20.8749 19.4173 19.7527 20.6794 18.5604C20.5214 18.4339 20.1592 18.188 20.0282 18.0214C21.5779 18.2044 23.1929 16.9789 22.4589 16.3985C21.9798 16.0185 21.7684 16.8062 21.03 16.6731L21.3193 16.4238C21.2184 16.3226 21.1001 16.1919 20.9807 16.0941C21.2961 16.0555 21.6391 15.8547 21.6391 15.8547L21.451 15.5445C23.2658 15.5424 23.3089 14.1548 22.5749 14.1001C22.2298 14.0738 21.7807 14.7123 20.664 14.5796C20.8053 14.4072 20.8631 14.1473 20.9325 13.9561C20.6637 13.9308 20.3439 13.9329 20.0901 13.8094C20.6363 13.7379 20.7735 13.5556 21.227 13.2115L20.7013 13.0186C21.4647 12.6376 21.4178 11.972 21.4407 11.2801C21.0426 11.5103 20.5696 11.8674 20.0703 11.6998C19.9512 11.6612 19.8736 11.6061 19.8705 11.4806C20.5877 11.1984 21.0447 10.0954 19.3305 9.16781C18.2374 8.57782 15.5624 7.27745 17.3751 5.87482C17.6227 5.68534 17.8929 5.51467 18.1211 5.30056C18.4053 5.5198 18.0168 6.06088 17.9193 6.25925C17.9193 6.25925 18.5219 6.31979 18.6649 6.31979C19.5993 6.31466 20.5782 5.76332 20.0829 4.70476C20.4537 4.78206 20.4974 5.1381 20.6107 5.44387C20.849 5.28278 21.2622 4.93733 21.582 4.98658C21.3224 5.81565 20.2348 6.55989 19.3886 6.72919C20.243 7.19468 21.8276 7.54115 22.6607 6.53971C23.2459 7.67214 22.4309 8.14448 21.6319 8.73754C24.6749 10.1258 24.2262 11.6834 26.2219 12.9092C25.964 13.0303 24.8069 12.7867 24.704 12.7717C25.1394 13.3333 25.3422 13.5707 25.4684 13.8446C25.5891 14.1011 25.6425 14.3891 25.7618 15.0133C25.8573 15.5062 26.0297 15.997 26.6278 16.3226C26.3936 16.7484 25.8713 16.4166 25.6558 16.3599ZM25.5371 13.2635C26.0984 13.3507 26.5399 13.3507 26.7496 12.7888C24.6869 11.8065 24.704 9.74446 22.3324 8.66469C23.6358 7.69711 23.2846 6.79075 22.6795 5.87482C22.0379 7.00828 20.9339 7.16356 20.2567 6.79417C21.2116 6.44634 21.5714 5.26875 22.1494 4.92468C21.7879 4.53717 21.3251 4.52383 20.7882 4.89116C20.4961 4.10827 19.5384 4.36581 19.3944 4.36581C19.6451 4.61652 19.8828 4.94623 19.838 5.29817C19.7388 6.08242 18.4645 5.95588 18.4645 5.95588C18.721 5.42608 18.6071 5.11005 18.0352 4.83781C17.8598 5.25952 16.4906 5.82762 16.4027 6.65873C16.2656 7.96013 17.8061 8.7502 19.1594 9.48213C20.649 10.2883 20.1021 11.1649 19.5627 11.1936C19.2634 12.1188 20.4106 12.285 21.0618 11.9095C21.0587 12.0326 20.9766 12.7751 19.9769 12.8357C20.061 13.1288 20.2255 13.2239 20.4882 13.3213C20.2922 13.467 19.7228 13.4889 19.4201 13.4889C19.4567 13.8911 19.8927 14.2133 20.4396 14.2677C20.3959 14.3891 20.1534 14.5861 19.9341 14.6463C20.5248 15.2349 22.1118 14.8474 22.435 14.5085C22.5828 14.3535 22.7644 14.5742 22.5886 14.8088C22.4056 15.0489 21.6076 15.3184 20.9612 15.1197C20.887 15.4819 21.0122 15.619 21.1131 15.7162C21.1131 15.7162 20.4807 15.7794 20.3172 15.868C20.3784 16.1403 20.6859 16.2976 20.7929 16.4043C20.6859 16.497 20.558 16.7138 20.5121 16.8794C20.8018 17.0193 21.5923 17.2382 22.0153 16.7549C22.1881 16.563 22.3755 16.6855 22.2004 16.9293C21.5758 17.7875 20.085 17.8011 19.5582 17.5333C19.5435 18.2047 19.8336 18.3436 20.1841 18.6223C19.1071 19.8635 19.8182 20.9659 19.0558 22.0511C20.4913 22.0511 21.3901 21.2682 21.6422 20.5366C21.6699 20.7952 21.8077 21.023 22.1908 21.1006C22.1614 20.8274 22.2465 20.55 22.3854 20.2699C22.6768 20.5048 23.2066 20.5585 23.8985 20.5876C23.1129 19.253 25.3377 17.8849 24.456 16.0657C24.325 15.7921 24.7081 15.619 24.745 15.8971C24.9513 17.4557 25.8675 17.808 26.6398 17.322C26.4069 17.0678 26.3115 17.073 26.1634 16.8418C26.6829 16.9796 26.948 16.603 27.0817 16.1307C25.6698 15.6348 26.4295 14.4223 25.5371 13.2635ZM11.1763 18.9394L11.6004 18.6175C11.6757 18.5601 11.7239 18.5238 11.8108 18.5351L12.4083 18.6134C12.4408 18.7571 12.5362 18.8973 12.5362 18.8973L11.9007 18.7632C11.8108 18.7526 11.7844 18.7571 11.6996 18.8176L11.399 19.0451C11.3394 19.0923 11.3377 19.1655 11.3713 19.2383L11.4202 19.3433L11.2095 19.5024L11.1294 19.3508C11.0477 19.1891 11.0422 19.042 11.1763 18.9394ZM12.1473 17.8162L12.0365 17.8747C11.9606 17.9188 11.9216 17.9386 11.8556 17.8555L11.8073 17.7953C11.7841 17.7669 11.7759 17.6955 11.8251 17.6421L12.2981 17.0897L11.8617 16.732L12.4175 16.9368L12.6207 16.6834C12.6802 16.7347 12.6593 16.8811 12.6593 16.8811C12.8844 16.8811 13.538 17.2057 13.5629 18.0193C13.5629 18.0193 13.7103 18.2379 13.8988 18.2495L14.8616 18.3073C15.0206 18.3073 15.4198 18.0036 15.9328 18.2913C16.0624 18.2126 16.2013 18.1503 16.3439 18.1346C16.7954 18.1011 17.1282 18.4161 17.3761 18.7328C17.5571 18.9623 17.805 19.3139 17.805 19.3139C17.6987 19.4404 17.593 19.4832 17.5051 19.4511C17.371 19.3833 17.3283 19.2753 17.2862 19.1265C17.2188 18.8901 16.9585 18.688 16.9585 18.688C17.0464 18.847 17.0652 19.0269 17.1073 19.1918C16.7314 18.82 16.6599 18.3644 16.3973 18.3025C16.2803 18.2735 16.1459 18.3227 16.0193 18.4691C16.1524 18.7762 16.1459 19.1337 16.2813 19.3717C16.3846 19.5506 16.4058 19.5663 16.4527 19.6056C16.5638 19.6853 16.5002 19.828 16.4835 19.9326L16.3408 20.8267H16.1011L16.2591 19.9514C16.3073 19.6853 15.559 19.6853 15.1759 19.1771C14.8493 19.5581 13.9337 19.4627 13.538 19.4032C13.3782 19.3799 13.2226 19.3895 13.1344 19.5472C13.0834 19.6361 12.9965 19.6094 12.9442 19.5964L12.2222 19.4404C12.0953 19.411 12.0406 19.4363 11.9842 19.5526L11.8391 19.8519C11.8073 19.922 11.8087 19.9726 11.8662 20.0287L11.9353 20.1023C11.8942 20.2466 11.7636 20.3554 11.7636 20.3554L11.6055 20.1782C11.5293 20.0886 11.5255 19.9579 11.5864 19.831L11.82 19.344C11.8474 19.2906 11.8966 19.2315 11.9958 19.2315L12.8895 19.2168L12.6155 18.7715C12.4113 18.4366 12.7496 17.8412 12.6993 17.5597C12.674 17.9373 12.2181 17.7645 12.1473 17.8162ZM15.8658 19.8762L15.4803 20.8267H15.2406L15.6257 19.9063C15.6657 19.7879 15.5901 19.7319 15.494 19.6015C15.6366 19.6826 15.7392 19.7346 15.913 19.802C15.8972 19.828 15.8795 19.8434 15.8658 19.8762ZM11.1636 19.7684L11.5973 19.4008L11.5313 19.2681C11.4841 19.1747 11.5094 19.1675 11.5601 19.1309L11.7878 18.9602C11.8412 18.9165 11.8966 18.9216 11.9626 18.9373L12.6497 19.0991H11.9246C11.756 19.1101 11.7071 19.1747 11.6476 19.2982L11.5973 19.4008L11.4106 19.7838C11.347 19.9159 11.3145 20.0913 11.4807 20.2907L11.6127 20.4467L11.3456 20.9884H11.571L11.7553 20.6119C11.7701 20.5985 12.0437 20.3502 12.1008 20.0913C12.0228 20.028 11.9664 19.9829 12.0098 19.8926L12.094 19.7137C12.1206 19.6539 12.1305 19.6292 12.2102 19.6457L12.9326 19.802C13.0225 19.8259 13.1546 19.8656 13.2507 19.7209C13.3502 19.5694 13.3632 19.5862 13.5924 19.6094L13.9607 19.6481C14.4642 19.6959 14.9666 19.5694 15.1626 19.4145C15.231 19.5711 15.3671 19.6908 15.4311 19.8122C15.4543 19.857 15.4157 19.921 15.3842 20.0003L14.9707 20.9884H15.6082L15.9694 20.0855C16.0029 20.0003 16.0511 19.9313 16.0895 19.8977L15.8822 20.9884H16.5002L16.6651 19.9077C16.701 19.6689 16.6798 19.5906 16.5649 19.4928C16.3063 19.2753 16.3125 18.8176 16.229 18.5396C16.2731 18.5146 16.3234 18.5016 16.3846 18.5088C16.5197 18.5225 16.6206 18.8662 16.7797 19.0871C17.0957 19.5325 17.5297 20.0239 18.025 19.3317C17.9767 19.253 17.9237 19.1802 17.8646 19.1121L17.7264 18.9507C17.646 18.8607 17.2619 18.4222 17.1029 18.2639C16.7393 17.899 16.1818 17.954 15.9598 18.1312C15.4564 17.8682 14.9256 18.1449 14.8 18.1346L13.9333 18.0823C13.8944 18.0799 13.8338 18.0662 13.7921 17.9992L13.9525 17.9462C13.8017 17.3189 13.4227 16.7932 12.7609 16.7036C12.7609 16.7036 12.7222 16.5052 12.6217 16.4669L12.424 16.7002C12.3683 16.7077 12.307 16.7245 12.2574 16.7463L11.4126 16.4324L12.0471 17.073C12.0471 17.073 11.7177 17.5388 11.6244 17.6339C11.5624 17.7208 11.5686 17.7892 11.6377 17.873L11.7612 18.0347C11.8251 18.1175 11.8942 18.1151 11.9958 18.0624L12.135 17.9906C12.1945 17.9397 12.399 18.0399 12.4856 17.9602C12.4295 18.1425 12.4028 18.3176 12.3891 18.4575L11.82 18.3887C11.6952 18.3727 11.6391 18.3887 11.5624 18.4482L11.0771 18.8221C10.9184 18.9442 10.8688 19.1545 10.9677 19.3587L11.1636 19.7684ZM13.0167 7.47206C13.2486 7.63213 13.6584 7.80314 13.6584 7.80314V7.5302L12.7561 7.18476C12.7561 7.18476 12.7561 7.29524 13.0167 7.47206ZM13.6584 7.14269V6.8725L12.6343 6.50619C12.6343 6.50619 12.7561 6.63616 13.0167 6.81469C13.2486 6.97408 13.6584 7.14269 13.6584 7.14269ZM13.6584 6.52637V6.25275L12.5372 5.84027C12.5372 5.84027 12.7561 6.01812 13.0167 6.19529C13.2486 6.35536 13.6584 6.52637 13.6584 6.52637Z" fill="#D0D5D6"/>
<path d="M16.8077 10.2411H17.9549C17.9066 10.0752 17.7281 9.90726 17.3939 9.90726C17.0769 9.90726 16.8874 10.0899 16.8077 10.2411ZM15.6082 5.84027L14.4891 6.25275V6.52637C14.4891 6.52637 14.8996 6.3557 15.1298 6.19529C15.3907 6.01812 15.6082 5.84027 15.6082 5.84027ZM15.3907 7.18476L14.4891 7.5302V7.80314C14.4891 7.80314 14.8985 7.63213 15.1301 7.47206C15.3907 7.29523 15.3907 7.18476 15.3907 7.18476ZM15.5121 6.50619L14.4891 6.8725V7.14269C14.4891 7.14269 14.8996 6.97408 15.1301 6.81469C15.3907 6.63616 15.5121 6.50619 15.5121 6.50619ZM10.7502 9.90726C10.4163 9.90726 10.2375 10.0752 10.1909 10.2411H11.3377C11.2567 10.0899 11.0686 9.90726 10.7502 9.90726Z" fill="#D0D5D6"/>
<path d="M14.0736 5.70514L12.2322 4.97766C12.3881 4.60725 13.1105 4.29156 14.0736 4.29156C15.0367 4.29156 15.7581 4.60725 15.914 4.97766L14.0736 5.70514ZM15.4448 7.97857L14.2025 8.63114V5.99415L15.8894 5.42092L15.4448 7.97857ZM16.896 9.07817C16.4301 9.15923 16.031 9.72904 15.7027 10.241L15.6657 10.3006H15.3162L15.3158 10.3611C15.2785 10.7568 14.9034 11.2948 14.0729 11.2948C13.6895 11.2948 13.4008 11.1775 13.2025 11.0174C13.0298 10.8775 12.9224 10.7045 12.8697 10.54C12.8498 10.4787 12.8375 10.4196 12.8321 10.3611L12.8293 10.3006H12.4818L12.4442 10.241C12.1145 9.72904 11.715 9.15923 11.2516 9.07817L12.5181 8.3435L14.0736 9.18898L15.6278 8.3435L16.896 9.07817ZM18.604 11.0174C18.4713 11.3639 18.3639 11.7384 18.3639 12.1133V16.1423H17.8954C17.683 15.9364 17.5031 15.2486 17.5031 15.2486C17.3868 15.4972 17.5198 15.9969 17.645 16.1423H17.0413C16.8922 15.9405 16.7626 15.2247 16.7626 15.2247C16.5823 15.4306 16.6966 15.9877 16.8084 16.1423H16.4079C16.3819 15.8564 16.4637 15.5444 16.4637 15.5444C16.255 15.5058 16.0313 15.395 16.0324 15.1614C16.1381 15.2612 16.1808 15.2599 16.3282 15.2571L16.4989 15.1227C15.9328 15.1405 15.9075 14.5208 16.3546 14.2301C15.9075 14.2444 15.5723 13.9787 15.7362 13.5022C15.4167 13.3374 15.3045 12.7983 15.5402 12.5617C15.3695 12.3763 15.3411 12.0141 15.4502 11.7658C15.2249 11.7658 14.9707 11.6751 14.8291 11.5212C14.8182 11.5264 14.8055 11.5301 14.7936 11.5339C15.0757 11.4186 15.3141 11.2401 15.4762 11.0174H18.604ZM18.365 19.0208C18.365 19.8614 17.9768 20.499 17.3314 20.8537L17.5633 20.3827H17.3392L17.0424 20.9853C16.7352 21.102 16.3857 21.1656 15.9995 21.1656C14.8209 21.1656 14.5093 21.2138 14.0746 21.6482C13.6368 21.2138 13.3259 21.1656 12.1497 21.1656C11.7656 21.1656 11.4181 21.1026 11.1107 20.9884H11.1196L11.4161 20.3827H11.1921L10.9314 20.9121C10.8695 20.8827 10.8097 20.8513 10.7505 20.8167L10.9656 20.3827H10.7437L10.584 20.7062C10.0791 20.3341 9.78225 19.7544 9.78225 19.0208V16.379H18.365V19.0208ZM12.5225 14.1962L12.8847 14.2407C12.9118 14.4394 12.8598 14.7756 12.7305 14.9627L12.3803 14.8611C12.4733 14.6384 12.4972 14.4329 12.5225 14.1962ZM12.002 13.9308C12.002 13.9308 12.3337 13.9147 12.4275 13.9503C12.4972 13.979 12.45 14.095 12.3611 14.0826C12.2667 14.071 12.002 13.9308 12.002 13.9308ZM11.9794 12.6119L11.6818 13.7006L11.7834 11.9457L12.2458 11.5503L12.4808 12.0664L11.8867 13.7704L12.043 12.6232C12.0584 12.5429 11.9927 12.5343 11.9794 12.6119ZM11.7506 14.4257C11.5939 14.4893 11.4346 14.4038 11.4838 14.3022C11.556 14.3689 11.7585 14.3364 11.7585 14.3364L11.7506 14.4257ZM11.4571 14.571C11.529 14.6412 11.7475 14.6148 11.7475 14.6148L11.7561 14.6579C11.6606 14.7848 11.3963 14.728 11.4571 14.571ZM11.1144 13.8709C11.031 13.8152 11.0686 13.6938 11.1613 13.6938C11.2622 13.6962 11.3973 13.8111 11.5314 13.8685C11.5314 13.8685 11.1815 13.915 11.1144 13.8709ZM11.4462 14.8347C11.4462 14.8347 11.5467 14.8778 11.6733 14.8874C11.6586 14.9565 11.6056 15.0242 11.5194 15.0047C11.4482 14.989 11.4161 14.9001 11.4462 14.8347ZM11.6815 14.1777C11.5132 14.2321 11.439 14.1114 11.4472 14.0081C11.7759 13.887 11.9223 13.965 12.0191 14.0269C12.108 14.0826 12.1809 14.2407 12.3006 14.3405C12.2804 14.4749 12.2387 14.6706 12.1904 14.8016C11.8539 14.7147 11.8364 14.4185 11.9626 14.2372C11.8915 14.1548 11.8169 14.1339 11.6815 14.1777ZM13.1409 14.2742L13.5014 14.3169C13.5366 14.516 13.4696 14.9356 13.3335 15.1368L12.9661 15.0307C13.1129 14.8378 13.1669 14.4951 13.1409 14.2742ZM13.7607 14.3501L14.0582 14.3877C14.1051 14.634 14.0746 15.0612 13.917 15.305L13.5705 15.2038C13.7227 14.9982 13.7931 14.5741 13.7607 14.3501ZM14.2935 14.4161H14.3C14.3773 14.4277 14.4587 14.4151 14.5329 14.384C14.6933 14.6148 14.8189 15.1368 14.6263 15.4637C14.5172 15.4644 14.4098 15.4459 14.3099 15.4179L14.2299 15.394C14.3927 15.1405 14.3681 14.6955 14.2935 14.4161ZM14.7477 14.2407L14.9581 14.0344C15.1739 14.2215 15.4554 14.6412 15.3671 15.0389L15.1373 15.2486C15.0908 15.2948 15.0408 15.3293 14.9916 15.3598C15.1342 15.0037 14.9516 14.4578 14.7477 14.2407ZM15.9852 14.359C15.939 14.4202 15.901 14.4927 15.8771 14.5704L15.6209 14.8064C15.6722 14.4312 15.4208 13.9879 15.1907 13.8073L15.4639 13.5402L15.5173 13.5946C15.4263 13.834 15.6042 14.3022 15.9852 14.359ZM15.3045 12.5459C15.1698 12.8031 15.1835 13.0997 15.3415 13.3685L15.2365 13.4718C14.7771 13.4154 14.5959 12.7299 14.5959 12.7299C14.5873 12.7898 14.5812 12.8524 14.5822 12.9122C14.3144 12.8131 14.1441 12.5753 14.1581 12.2487C14.2597 12.3058 14.3739 12.3455 14.4953 12.3671L14.5261 12.1659C14.2053 12.1102 14.0179 11.9094 13.9457 11.6727C13.9313 11.6707 13.917 11.6683 13.9029 11.6656C13.9594 11.6707 14.0161 11.6751 14.0746 11.6751C14.2645 11.6751 14.4454 11.6457 14.615 11.5961C14.7481 11.786 14.9851 11.9217 15.2228 11.9484C15.1852 12.1047 15.2033 12.3021 15.3045 12.5459ZM12.6703 11.0174C12.8919 11.3208 13.2517 11.5452 13.6772 11.6338C13.7138 11.7938 13.7996 11.9683 13.9693 12.1102C13.8992 12.5812 14.1017 13.021 14.6085 13.1383C14.6612 13.3777 14.8107 13.5593 15.06 13.6459L14.7077 14.0529C14.5736 14.2092 14.3978 14.2595 14.2518 14.2407L12.6775 14.0618C12.7452 13.8867 12.5643 13.6838 12.0663 13.7707L12.685 12.0415L12.3071 11.238L11.5919 11.8485L11.5392 13.6637L11.2358 13.5139C10.835 13.3422 10.7187 14.0638 11.0987 14.0669L11.2492 14.0686C11.2399 14.1439 11.2622 14.2246 11.3207 14.2499C11.2492 14.2803 11.2283 14.4151 11.3179 14.4623C11.2263 14.5054 11.2153 14.6422 11.2882 14.702C11.2085 14.8347 11.1965 15.1248 11.4725 15.1973C11.6972 15.2571 11.8392 15.0133 11.8867 14.8724L14.3353 15.6306C14.6827 15.7302 14.929 15.6751 15.217 15.422L15.8562 14.8631C15.7765 15.2284 15.9075 15.5581 16.1856 15.6669C16.1856 15.6669 16.1452 15.9939 16.1586 16.1423H9.78225V12.1133C9.78225 11.7384 9.67417 11.3639 9.54454 11.0174H12.6703ZM12.2568 5.42092L13.9419 5.99415V8.63114L12.7011 7.97857L12.2568 5.42092ZM16.3511 5.10729C16.3511 4.46189 15.2676 3.88422 14.0729 3.88422C12.8772 3.88422 11.7937 4.46189 11.7937 5.10729L11.819 5.26393L12.2944 8.00319L10.0357 9.31998C9.79491 9.46123 9.49393 9.85045 9.45562 10.241H9.86776C9.93582 9.8508 10.245 9.41711 10.8223 9.44311C11.3439 9.47149 11.6517 9.78889 11.9589 10.241L12.0379 10.3611L12.1518 10.54H8.82938C9.07255 11.0294 9.30581 11.5493 9.30581 12.1133V19.0208C9.30581 20.7979 10.6715 21.6437 12.1497 21.6437C13.2907 21.6437 13.4446 21.5924 14.0746 22.2217C14.7026 21.5924 14.8555 21.6437 15.9995 21.6437C17.4774 21.6437 18.8428 20.7979 18.8428 19.0208V12.1133C18.8428 11.5493 19.0736 11.0294 19.3175 10.54H15.9934L16.1086 10.3611L16.188 10.241C16.4927 9.78889 16.8023 9.47149 17.3238 9.44311C17.8984 9.41711 18.2093 9.8508 18.2771 10.241H18.6889C18.6519 9.85045 18.3492 9.46123 18.1098 9.31998L15.8511 8.00319L16.3275 5.26393L16.3511 5.10729Z" fill="#D0D5D6"/>
<path d="M18.1696 13.6216L18.1724 13.4195C17.5533 13.4051 17.4104 12.6732 17.4104 12.6732C17.2298 13.2115 17.7028 13.6124 18.1696 13.6216ZM17.3868 14.859L17.3238 14.6675C16.7961 14.8026 16.5238 13.9653 16.5238 13.9653C16.3535 14.5741 16.9438 15.0047 17.3868 14.859ZM17.7537 14.0826C17.1227 14.1828 16.8631 13.4482 16.8631 13.4482C16.7933 13.848 17.0526 14.2533 17.4695 14.2967C17.3758 14.8183 17.8608 15.0861 18.2805 14.9001L18.2199 14.7188C17.8553 14.8395 17.5133 14.4794 17.7537 14.0826ZM17.3758 11.986L17.3809 11.7846C16.5478 11.6119 16.6182 11.0386 16.6182 11.0386C16.438 11.5787 16.9103 11.9775 17.3758 11.986Z" fill="#D0D5D6"/>
<path fill-rule="evenodd" clip-rule="evenodd" d="M12.0953 20.3827L11.796 20.9887H12.0207L12.3193 20.3827H12.0953Z" fill="#D0D5D6"/>
<path fill-rule="evenodd" clip-rule="evenodd" d="M12.5446 20.3827L12.2473 20.9887H12.4733L12.7686 20.3827H12.5446Z" fill="#D0D5D6"/>
<path fill-rule="evenodd" clip-rule="evenodd" d="M14.3493 20.3827L14.0527 20.9887H14.2753L14.574 20.3827H14.3493Z" fill="#D0D5D6"/>
<path fill-rule="evenodd" clip-rule="evenodd" d="M14.8027 20.3827L14.5027 20.9887H14.728L15.0247 20.3827H14.8027Z" fill="#D0D5D6"/>
<path fill-rule="evenodd" clip-rule="evenodd" d="M13.8986 20.3827L13.6006 20.9887H13.8253L14.1226 20.3827H13.8986Z" fill="#D0D5D6"/>
<path fill-rule="evenodd" clip-rule="evenodd" d="M16.5347 20.9887H16.758L17.0567 20.3827H16.832L16.5347 20.9887Z" fill="#D0D5D6"/>
<path fill-rule="evenodd" clip-rule="evenodd" d="M12.9967 20.3827L12.6993 20.9887H12.924L13.2213 20.3827H12.9967Z" fill="#D0D5D6"/>
<path fill-rule="evenodd" clip-rule="evenodd" d="M13.4473 20.3827L13.1493 20.9887H13.3747L13.6727 20.3827H13.4473Z" fill="#D0D5D6"/>
<path d="M12.4261 17.1298C12.385 17.1298 12.3495 17.1705 12.3495 17.2224C12.3495 17.272 12.385 17.3127 12.4261 17.3127C12.4692 17.3127 12.5047 17.272 12.5047 17.2224C12.5047 17.1705 12.4692 17.1298 12.4261 17.1298ZM12.3351 3.14617L12.6891 2.39338L13.3482 2.74293L14.0739 2.02605L14.8011 2.74293L15.4584 2.39338L15.8104 3.14617L16.2468 3.07845C16.1356 3.2888 16.0508 3.47246 15.9725 3.73001C15.495 3.45092 14.7847 3.23612 14.0739 3.23612C13.3618 3.23612 12.6535 3.45092 12.175 3.73001C12.0953 3.47246 12.0126 3.2888 11.8994 3.07845L12.3351 3.14617ZM14.0746 3.47588C14.9991 3.47588 15.7399 3.78233 16.149 4.11204C16.149 4.11204 16.2714 3.37738 16.6853 2.73267L15.9407 2.81646L15.5508 1.9874L14.8011 2.37696L14.0746 1.65564L13.3482 2.37696L12.5967 1.9874L12.2065 2.81646L11.4622 2.73267C11.8775 3.37738 11.9982 4.11204 11.9982 4.11204C12.4069 3.78233 13.1484 3.47588 14.0746 3.47588Z" fill="#D0D5D6"/>
<path d="M14.8346 1.99181C14.9434 2.00105 15.0388 1.91964 15.048 1.81157C15.0586 1.70451 14.9006 1.41516 14.9006 1.41516C14.9006 1.41516 14.6639 1.66997 14.6564 1.77907C14.6465 1.88613 14.7276 1.98121 14.8346 1.99181ZM16.0553 2.43507C16.1524 2.48672 16.2697 2.44773 16.3217 2.35162C16.3734 2.25756 16.3398 1.93059 16.3398 1.93059C16.3398 1.93059 16.0245 2.07184 15.9732 2.16829C15.9239 2.26372 15.9599 2.38274 16.0553 2.43507ZM13.3116 1.99181C13.4214 1.98121 13.5014 1.88613 13.4915 1.77907C13.4819 1.66997 13.2476 1.41516 13.2476 1.41516C13.2476 1.41516 13.0899 1.70451 13.1002 1.81157C13.1084 1.91964 13.2052 2.00105 13.3116 1.99181ZM12.0919 2.43507C12.1884 2.38274 12.225 2.26372 12.173 2.16829C12.1224 2.07184 11.8074 1.93059 11.8074 1.93059C11.8074 1.93059 11.7749 2.25756 11.8272 2.35162C11.8775 2.44773 11.9958 2.48672 12.0919 2.43507ZM25.5994 9.29262C25.6798 9.4715 25.8392 10.0933 25.4575 10.5673C25.0238 9.69894 24.4259 8.95573 23.9433 8.63491C23.8373 8.56685 24.0011 8.44475 24.2984 8.40576C25.1996 8.23543 26.2547 8.61713 26.7565 8.75017C26.5229 8.92597 26.332 9.00361 26.0943 9.03371C26.4593 9.33948 26.7243 9.59839 26.9135 9.88671C26.5588 9.97495 26.3608 9.75093 25.5994 9.29262ZM26.7346 9.14521C26.9949 9.05286 27.196 8.80387 27.2958 8.5754C26.6344 8.47929 24.876 7.74155 23.4313 8.34282C23.9724 7.82842 24.4581 7.76241 24.5036 7.0233C24.729 7.18474 25.1083 7.27571 25.3214 6.8906C25.1729 6.44973 24.7957 6.8068 24.7437 6.68538C24.6695 6.51779 25.2184 6.7384 25.3361 6.16619C24.9092 6.01947 24.7816 6.36799 24.7057 6.28727C24.6353 6.20997 24.9769 6.06359 24.7252 5.60254C24.2806 5.86214 24.5125 6.15525 24.4188 6.18706C24.3045 6.23289 24.3941 5.87479 23.9037 5.89155C23.8554 6.41826 24.3654 6.43571 24.2806 6.5195C24.1807 6.62211 24.0477 6.21613 23.6766 6.42168C23.6834 6.8475 24.0271 7.08076 24.3839 6.98055C24.3264 7.78977 23.5846 7.63894 23.0315 8.55009C24.2016 9.15 24.7307 10.1969 25.451 10.9193C25.689 10.7517 26.096 10.0003 26.096 10.0003C26.8752 10.6043 27.4238 10.003 27.4238 10.003C27.1553 9.72836 27.1454 9.51972 26.7346 9.14521ZM13.8568 23.4978L13.3502 23.4787L13.2917 23.6822L13.3554 23.6849C13.3762 23.6849 13.3762 23.6456 13.3943 23.624C13.405 23.6162 13.4966 23.6011 13.5695 23.6086L13.7819 23.6247C13.6563 23.885 13.3294 24.1302 13.3335 24.3026C13.3386 24.3946 13.4316 24.4138 13.4867 24.4104C13.589 24.4073 13.6218 24.3348 13.6485 24.2243C13.7097 23.9678 13.8342 23.7718 13.9238 23.4787L13.8609 23.4811L13.8568 23.4978ZM14.2025 23.8002L14.2111 23.6442H14.6516L14.6287 23.4698C14.508 23.4736 14.3311 23.5132 14.168 23.5143L14.1382 23.8549C14.3424 23.846 14.4755 23.9349 14.4755 24.149C14.4755 24.2284 14.4232 24.3779 14.3311 24.3888C14.3099 24.3919 14.2819 24.3844 14.2686 24.3738C14.2241 24.3406 14.2822 24.3047 14.2822 24.2493C14.2822 24.1791 14.2097 24.1538 14.1618 24.1624C14.0859 24.1668 14.0582 24.2157 14.0582 24.2763C14.0582 24.4021 14.2443 24.4367 14.325 24.4367C14.5052 24.4367 14.7146 24.3361 14.7146 24.1313C14.7146 23.8621 14.4136 23.8057 14.2025 23.8002ZM15.2854 23.9394C15.1183 23.9394 15.0942 23.6948 15.0942 23.5765C15.0942 23.5426 15.1274 23.4958 15.164 23.4958C15.3168 23.4958 15.3592 23.8282 15.3713 23.9219C15.3464 23.9308 15.3168 23.9394 15.2854 23.9394ZM15.179 23.4493C15.0112 23.4493 14.8722 23.5669 14.8722 23.7277C14.8722 23.9815 15.1633 24.0649 15.3793 23.9685C15.406 24.1655 15.3633 24.3071 15.2832 24.3118C15.2148 24.3118 15.2247 24.264 15.2148 24.2239C15.1969 24.1467 15.1329 24.1261 15.0656 24.1467C14.9954 24.1655 14.9845 24.2243 14.9965 24.2674C15.028 24.3676 15.16 24.37 15.2229 24.3625C15.5011 24.3327 15.6166 24.1405 15.6166 23.9267C15.6166 23.6788 15.4653 23.4493 15.179 23.4493ZM12.9935 23.3973C12.9702 23.4257 12.8618 23.5618 12.6279 23.7355L12.647 23.7708C12.673 23.7564 12.7141 23.7373 12.7849 23.6948L12.647 24.1757C12.6398 24.2021 12.608 24.2051 12.5923 24.2021L12.5099 24.1897L12.4948 24.2469L12.9422 24.3269L12.9555 24.2711L12.8786 24.2534C12.856 24.2469 12.8413 24.2311 12.8457 24.2051L13.0492 23.4058L12.9935 23.3973Z" fill="#D0D5D6"/>
<path d="M16.3819 23.9657L15.9852 22.6742C16.83 22.5002 17.4189 22.3202 17.868 22.1465V22.9523L18.565 23.2331C17.9761 23.5016 17.2455 23.768 16.3819 23.9657ZM14.0746 24.7202C13.2852 24.7202 12.5164 24.6022 11.8576 24.4408L12.2766 23.0881C12.5547 23.1521 13.2486 23.2372 14.0746 23.2372C14.9006 23.2372 15.5922 23.1521 15.872 23.0881L16.2916 24.4408C15.6308 24.6022 14.8606 24.7202 14.0746 24.7202ZM9.5808 23.2331L10.2795 22.9523V22.1465C10.7283 22.3202 11.3176 22.5002 12.1624 22.6742L11.7667 23.9657C10.9044 23.768 10.1725 23.5016 9.5808 23.2331ZM18.0838 22.784V21.797C17.3204 22.1465 16.3494 22.4304 15.1004 22.5432L15.0432 22.8959C15.1499 22.9106 15.2837 22.9239 15.4639 22.9349C14.9998 22.9992 14.4026 23.0299 14.0746 23.0299C13.7459 23.0299 13.1491 22.9992 12.685 22.9349C12.8639 22.9239 12.9976 22.9106 13.1043 22.8959L13.0479 22.5432C11.7981 22.4304 10.8254 22.1465 10.0637 21.797V22.784L9.02843 23.2095C9.7949 23.6086 10.678 23.9339 11.6972 24.1969L11.5772 24.6104C12.162 24.7811 13.0951 24.9555 14.0746 24.9555C15.0532 24.9555 15.9869 24.7811 16.5704 24.6104L16.4496 24.1969C17.4692 23.9339 18.353 23.6086 19.1198 23.2095L18.0838 22.784ZM1.2334 9.88671C1.42254 9.59839 1.68589 9.33948 2.05391 9.03473C1.81347 9.00361 1.62501 8.92597 1.39005 8.75017C1.89248 8.61712 2.95001 8.23543 3.84987 8.40575C4.14538 8.44474 4.31263 8.56685 4.20421 8.63491C3.72024 8.95573 3.12273 9.69894 2.68802 10.5667C2.30838 10.0933 2.46776 9.4715 2.54813 9.29262C1.78782 9.75093 1.5891 9.97495 1.2334 9.88671ZM2.05117 10.0003C2.05117 10.0003 2.45818 10.7517 2.69554 10.9193C3.41653 10.1969 3.94632 9.14999 5.11569 8.55009C4.5623 7.63894 3.81909 7.79148 3.76539 6.98123C4.11938 7.08076 4.46448 6.84647 4.47167 6.42168C4.0992 6.21818 3.96718 6.62313 3.86663 6.5195C3.78318 6.434 4.29279 6.41826 4.24388 5.89189C3.75274 5.87684 3.84371 6.23289 3.72777 6.18706C3.63576 6.15422 3.86663 5.86145 3.42097 5.60254C3.17061 6.06564 3.51298 6.20963 3.44184 6.28727C3.36659 6.36799 3.23765 6.01946 2.81217 6.16619C2.92709 6.7384 3.47775 6.51779 3.40319 6.68538C3.3512 6.8068 2.97498 6.45041 2.82722 6.89128C3.03825 7.27571 3.41892 7.18473 3.64226 7.02398C3.68912 7.76549 4.17445 7.82671 4.7169 8.34282C3.27219 7.74155 1.51317 8.47895 0.849992 8.57574C0.950888 8.80387 1.152 9.05286 1.41159 9.14315C1.00288 9.52143 0.992957 9.72904 0.723785 10.0023C0.723785 10.0023 1.27136 10.6043 2.05117 10.0003ZM13.4402 9.45029V9.885C13.591 9.70476 13.88 9.73964 13.88 9.73964V10.3655C13.88 10.3655 13.8704 10.6744 13.761 10.8081H14.3879C14.2788 10.6744 14.2686 10.3655 14.2686 10.3655V9.73964C14.2686 9.73964 14.5576 9.70476 14.7077 9.885V9.45029H13.4402Z" fill="#D0D5D6"/>
<path fill-rule="evenodd" clip-rule="evenodd" d="M27.7986 9.63705C27.7227 9.55873 27.6768 9.48793 27.6139 9.38909C27.5814 9.33847 27.5459 9.28511 27.5055 9.22663C27.6146 9.09974 27.708 8.95335 27.7777 8.79294L28.0579 8.15473L27.3687 8.05554C27.2521 8.03844 27.0646 7.98919 26.8461 7.93173C26.423 7.82092 25.8812 7.67863 25.2888 7.61673C25.4913 7.5278 25.6623 7.36842 25.7824 7.15226L25.8956 6.94807C25.8956 6.94807 25.8655 6.6618 25.754 6.57185C25.7971 6.48327 25.8289 6.38545 25.8515 6.27874L25.9448 5.82179L25.5043 5.67096C25.4363 5.64702 25.3672 5.63026 25.2998 5.61932C25.2748 5.53552 25.2379 5.44694 25.1876 5.35391L24.926 4.87439L24.454 5.15075C24.3367 5.21984 24.2375 5.29816 24.1571 5.3864C24.0866 5.3734 24.0114 5.3669 23.932 5.3669C23.932 5.3669 23.6636 5.33681 23.3653 5.44454L22.9846 5.05019L22.5345 4.56931C22.1139 4.11852 21.5434 3.98548 20.9612 4.20676C20.7393 3.98548 20.3928 3.80147 19.8555 3.80147C19.6735 3.80147 19.5138 3.82336 19.4191 3.83601C19.4191 3.83601 18.6789 3.97077 18.2634 4.36581L17.7582 4.12571C17.4199 4.65789 16.8412 4.82719 16.8412 4.82719C16.8022 4.67157 16.7342 4.52587 16.6381 4.39351L16.6712 4.2054C16.6712 4.19992 16.7845 3.5641 17.1309 3.02576L17.7329 2.08862L16.8799 2.18439C16.8819 2.09957 16.8782 2.00004 16.8662 1.88135L16.7899 1.15182L16.1213 1.45348C16.0471 1.487 15.9852 1.5195 15.9277 1.55062L15.7957 1.26913L15.4896 1.42818C15.4588 1.35225 15.4194 1.26708 15.3654 1.16858L15.0124 0.521816L14.5114 1.06187C14.4601 1.11762 14.417 1.16858 14.379 1.21783L14.075 0.915484L13.7692 1.2192C13.7312 1.16995 13.6892 1.11899 13.6379 1.06392L13.1358 0.518738L12.7818 1.16892C12.7277 1.26811 12.6891 1.35225 12.6583 1.42818L12.3529 1.26948L12.2202 1.55062C12.1624 1.5195 12.0998 1.487 12.0262 1.4528L11.3552 1.15114L11.281 1.88307C11.2687 2.00106 11.2656 2.10025 11.2676 2.18439L10.4133 2.08862L11.0173 3.02645C11.3648 3.56411 11.4756 4.1989 11.4759 4.20369L11.5077 4.3918C11.4106 4.52587 11.3429 4.67157 11.3039 4.82719C11.3039 4.82719 10.7577 4.59359 10.3921 4.12502L9.87698 4.37059C9.28904 3.97385 8.92479 3.81925 8.29136 3.80147C7.7537 3.78676 7.40723 3.98548 7.18594 4.20642C6.60314 3.98582 6.03401 4.11955 5.61469 4.56931C5.61469 4.56931 5.33868 4.86892 5.16391 5.05019C4.98914 5.23215 4.73228 5.3823 4.73228 5.3823C4.73228 5.3823 4.36631 5.30021 3.99043 5.38708C3.91005 5.2985 3.81018 5.21984 3.69082 5.14972L3.2178 4.87439L2.95752 5.35664C2.90793 5.44865 2.87167 5.53586 2.84739 5.61932C2.77967 5.63026 2.71127 5.64702 2.64252 5.67096L2.20507 5.82179L2.29673 6.276C2.31862 6.38545 2.35043 6.48327 2.39421 6.57219C2.3689 6.62042 2.34633 6.6724 2.32752 6.72713L2.25364 6.94773L2.36617 7.15192C2.48519 7.36774 2.65586 7.5278 2.85868 7.61673C2.26629 7.67863 1.72419 7.82092 1.30008 7.93207C1.08256 7.98953 0.894101 8.03878 0.777814 8.05623L0.0852183 8.1561L0.242891 8.51248L0.368755 8.79602C0.440238 8.95472 0.533268 9.1011 0.642715 9.22697C0.602014 9.28511 0.426557 9.55839 0.349944 9.63671L0.000396729 9.9931L0.336263 10.3635C0.377989 10.409 0.754214 10.8034 1.36336 10.804C1.52958 10.804 1.69512 10.775 1.85895 10.7172C2.02141 10.9713 2.21328 11.2281 2.39011 11.3547C2.06655 11.7354 1.69785 12.0651 1.17353 12.3147L0.735061 12.5237L0.922831 13.0244C1.04596 13.3264 1.28435 13.6586 1.74642 13.7854C1.64758 14.0806 1.59969 14.3618 1.55797 14.6107C1.45912 15.2038 1.4174 15.4494 0.895127 15.6327L0.426215 15.7969L0.560287 16.275C0.66905 16.6646 0.830485 16.9225 1.00697 17.0918L0.695386 17.4348C0.695386 17.4348 1.43518 17.9889 2.15993 18.0566C2.17019 18.058 2.78891 18.0973 3.06629 17.7437C3.17744 18.1445 3.35324 18.5142 3.51228 18.8501C3.83994 19.5389 4.01437 19.9473 3.79479 20.3191L3.29989 21.1591L4.27397 21.1184C4.6991 21.1006 5.09448 21.0753 5.43582 20.9905C5.43582 21.0093 5.43479 21.0264 5.43274 21.0438L5.35305 21.7652L6.20639 21.5853C6.29669 21.5582 6.38014 21.5234 6.45744 21.4816C6.9862 22.0993 7.88333 22.5819 9.0934 22.5819H9.1642L7.7732 23.1531L8.78558 23.6802C9.45253 24.0273 10.1937 24.3184 11.0388 24.5646L10.9208 24.9696L11.4294 25.1184C11.7229 25.2049 12.7831 25.4857 14.0746 25.4857C15.3661 25.4857 16.4253 25.2042 16.7195 25.1184L17.2267 24.9696L17.109 24.5653C17.9552 24.3184 18.6967 24.0273 19.3637 23.6802L20.3767 23.1531L18.9847 22.5819H19.0548C20.2639 22.5819 21.1613 22.0993 21.6897 21.4816C21.7664 21.5223 21.8508 21.5582 21.9401 21.5853L22.7931 21.7652L22.7151 21.0445C22.7134 21.0274 22.7124 21.0096 22.7124 20.9908C23.0534 21.0753 23.4491 21.1006 23.8739 21.1184L24.8466 21.1591L24.3534 20.3198C24.1335 19.9473 24.3083 19.5393 24.6352 18.8505C24.7946 18.5153 24.9701 18.1449 25.0816 17.7437C25.2694 17.887 25.4705 17.9721 25.6719 18.0169C25.6719 18.0169 25.8279 18.0638 25.9773 18.0676C26.4083 18.0806 26.6224 17.9585 26.9186 17.7721L27.4556 17.4341L27.1412 17.0907C27.3174 16.9214 27.4788 16.6639 27.5879 16.2764L27.7234 15.7969L27.2531 15.6327C26.7305 15.4494 26.6894 15.2038 26.5899 14.6111C26.5475 14.3617 26.5013 14.0806 26.4014 13.7854C26.8632 13.6582 27.1012 13.3258 27.2243 13.0244L27.4118 12.523L26.9736 12.3147C26.449 12.0651 26.0806 11.7354 25.7567 11.3547C25.9342 11.2278 26.1261 10.9706 26.2896 10.7172C26.4524 10.775 26.6173 10.8034 26.7842 10.804C27.3933 10.804 27.7706 10.4093 27.8116 10.3642L28.1475 9.99413L27.7986 9.63705Z" fill="#FFFFFE"/>
<path d="M14.0746 21.6492C13.6372 21.2145 13.3259 21.1666 12.1477 21.1666C10.7406 21.1666 9.78395 20.3417 9.78395 19.0221V16.3817H18.3643V19.0221C18.3643 20.3417 17.4097 21.1666 15.9995 21.1666C14.8209 21.1666 14.5093 21.2145 14.0746 21.6492ZM9.78395 16.1447V12.1167C9.78395 11.7415 9.67553 11.367 9.54556 11.0215H12.671C12.9579 11.4152 13.4781 11.6793 14.0746 11.6793C14.6691 11.6793 15.1893 11.4152 15.4766 11.0215H18.6027C18.47 11.367 18.3632 11.7415 18.3632 12.1167V16.1447H9.78395Z" fill="#FFE52B"/>
<path d="M10.2806 22.1476V22.9523L9.58283 23.2331C10.1735 23.5016 10.9054 23.7681 11.767 23.9654L12.1634 22.6753C11.3179 22.5005 10.7293 22.3203 10.2806 22.1476ZM14.0746 23.2373C13.249 23.2373 12.5547 23.1521 12.2773 23.0874L11.8586 24.4408C12.5164 24.6023 13.2862 24.7203 14.0746 24.7203C14.8606 24.7203 15.6301 24.6023 16.2909 24.4408L15.8709 23.0874C15.5922 23.1521 14.9006 23.2373 14.0746 23.2373ZM17.867 22.1476C17.4182 22.3203 16.8299 22.5005 15.9848 22.6753L16.3819 23.9654C17.2445 23.7681 17.975 23.5016 18.5643 23.2331L17.867 22.9523V22.1476ZM7.51154 9.28103C6.55388 10.3047 6.96841 10.9169 7.16199 11.1057C6.80526 11.0291 6.27342 10.5749 6.3945 10.1351C6.28094 10.2712 6.16534 10.4186 6.04529 10.5708C5.80759 10.8875 5.59485 11.1984 5.40639 11.4994C5.11602 12.3627 5.64855 13.2543 6.55388 13.6493C5.54696 13.5016 5.09549 12.6058 5.09857 12.036C4.61735 12.9444 4.38819 13.7735 4.40906 14.4699C4.41829 14.7284 4.44052 14.9709 4.47438 15.1984C4.70559 15.6372 5.07703 15.7983 5.73815 15.8783C5.13654 15.9163 4.81914 15.8882 4.55681 15.6146C4.96689 17.3743 6.88051 18.8984 7.66032 20.2035C6.88051 19.1891 5.26514 17.679 4.69909 16.5863C4.65531 16.981 4.76066 17.9927 5.25248 18.6148C4.52876 17.9038 4.47267 16.825 4.51919 16.1943C4.33586 15.7401 4.21992 15.2326 4.20419 14.6552C4.18948 14.1241 4.2271 13.664 4.30782 13.2495C3.85088 13.8994 3.19077 14.1501 2.86551 15.1388C2.92878 13.8628 3.88166 13.8429 4.59409 12.2949C4.87044 11.6174 5.27095 11.0332 5.71558 10.3693C5.15124 10.554 4.72919 10.6857 4.07661 11.4009C4.54005 10.3047 7.21877 9.07274 8.4456 7.87976C8.07793 7.95774 6.57303 7.99571 5.94884 7.57878C7.08059 7.88558 9.59856 7.535 10.5494 6.88482C9.8927 7.82914 8.46407 7.8825 6.72455 9.76054C6.94857 9.58645 7.24374 9.40758 7.51154 9.28103ZM8.81875 9.17227C9.91254 8.58194 12.5851 7.28259 10.7734 5.88098C10.5261 5.69082 10.2549 5.51981 10.0261 5.30639C9.74324 5.5246 10.1325 6.06568 10.2293 6.26405C10.2293 6.26405 9.62627 6.32493 9.48159 6.32493C8.54992 6.32082 7.57242 5.76914 8.06733 4.71093C7.69658 4.78754 7.65074 5.14358 7.53753 5.44969C7.29949 5.2886 6.88667 4.94316 6.56824 4.99173C6.82715 5.81976 7.9165 6.56571 8.76129 6.73501C7.90624 7.20016 6.32267 7.54629 5.48916 6.54485C4.90396 7.67626 5.71934 8.14962 6.51728 8.74234C3.47636 10.1299 3.92475 11.6868 1.92974 12.9123C2.18899 13.0337 3.34263 12.7898 3.44524 12.7751C3.01189 13.3371 2.80976 13.5744 2.68321 13.847C2.56248 14.1035 2.50741 14.3926 2.3877 15.0161C2.29365 15.5089 2.12195 15.9997 1.52307 16.3257C1.7577 16.7505 2.27928 16.4187 2.49749 16.3619C2.46774 16.4064 2.39454 16.9191 2.19857 17.1653C3.22326 17.0993 2.74888 14.9388 3.7746 15.459C4.06361 15.6047 4.15049 15.9446 4.01676 16.2231C3.34366 17.612 4.87386 18.8364 4.79041 20.0537C5.16664 20.0506 5.5562 20.0407 5.80246 19.5325C5.93003 19.7859 6.12909 20.1419 6.23956 20.486L6.54635 19.9641C6.73481 20.8274 7.54027 21.626 8.62859 21.6971C8.1094 20.8759 8.73119 19.7538 7.4705 18.5615C7.62714 18.4349 7.99071 18.19 8.12068 18.0235C6.57269 18.2054 4.95766 16.981 5.69061 16.3999C6.17047 16.0202 6.37979 16.8083 7.11993 16.6759L6.83057 16.4259C6.9325 16.3257 7.0481 16.1943 7.16849 16.0962C6.85452 16.0579 6.51078 15.8568 6.51078 15.8568L6.69821 15.5469C4.88515 15.5448 4.83864 14.1579 5.57535 14.1025C5.92182 14.0772 6.36884 14.7147 7.48521 14.5824C7.34224 14.41 7.28546 14.1507 7.21774 13.9582C7.4876 13.9336 7.80465 13.936 8.05912 13.8121C7.51394 13.7413 7.37576 13.559 6.92258 13.215L7.44998 13.0221C6.68556 12.6411 6.73207 11.9762 6.70847 11.2836C7.10795 11.5138 7.57858 11.8705 8.07998 11.7043C8.19935 11.6642 8.27596 11.6092 8.2787 11.4847C7.56182 11.2029 7.10317 10.0995 8.81875 9.17227ZM23.8397 13.2495C23.9201 13.664 23.9608 14.1244 23.9433 14.6552C23.9262 15.2326 23.8113 15.7401 23.6283 16.1943C23.6752 16.825 23.6187 17.9038 22.8957 18.6148C23.3862 17.992 23.4922 16.981 23.4491 16.5863C22.8807 17.679 21.267 19.1891 20.4862 20.2035C21.267 18.8984 23.1813 17.3736 23.5917 15.6146C23.3277 15.8882 23.012 15.9163 22.41 15.8786C23.0705 15.7983 23.4409 15.6372 23.6724 15.1984C23.707 14.9709 23.7296 14.7284 23.7384 14.4695C23.7603 13.7735 23.5298 12.9444 23.0486 12.036C23.0534 12.6058 22.6016 13.5016 21.5936 13.65C22.4976 13.2543 23.0308 12.3627 22.7408 11.4994C22.553 11.1984 22.3416 10.8875 22.1022 10.5708C21.9835 10.4186 21.8669 10.2715 21.7527 10.1351C21.8737 10.5749 21.3419 11.0291 20.9852 11.1057C21.1791 10.9169 21.5923 10.3047 20.6363 9.28103C20.9045 9.40758 21.2 9.58645 21.423 9.76054C19.6838 7.8825 18.2565 7.82949 17.5971 6.88482C18.5496 7.535 21.0679 7.88592 22.1983 7.57878C21.5745 7.99571 20.0692 7.95774 19.7009 7.87976C20.9274 9.07274 23.6085 10.3047 24.0709 11.4005C23.419 10.6857 22.9949 10.554 22.433 10.3697C22.8776 11.0336 23.2774 11.6174 23.5527 12.2946C24.2669 13.8429 25.2201 13.8624 25.2827 15.1395C24.9571 14.1494 24.2973 13.8994 23.8397 13.2495ZM25.7591 15.0161C25.6394 14.3922 25.5857 14.1035 25.4646 13.8477C25.3395 13.5744 25.1366 13.3371 24.7009 12.7751C24.8042 12.7898 25.9602 13.0337 26.2185 12.9123C24.2231 11.6868 24.6718 10.1299 21.6299 8.74234C22.4288 8.14962 23.2432 7.6766 22.659 6.54417C21.8255 7.54629 20.2409 7.20016 19.3869 6.73501C20.2334 6.56571 21.321 5.82045 21.5799 4.99173C21.2602 4.94316 20.8473 5.2886 20.6096 5.44901C20.4964 5.14358 20.4523 4.7872 20.0815 4.7099C20.5768 5.76914 19.5983 6.32082 18.6639 6.32493C18.5212 6.32493 17.9186 6.26405 17.9186 6.26405C18.0154 6.06568 18.4039 5.5246 18.12 5.30639C17.8919 5.51981 17.6221 5.69082 17.3741 5.88098C15.5614 7.28259 18.2367 8.58262 19.3294 9.17227C21.0426 10.0995 20.5864 11.2022 19.8695 11.4847C19.8715 11.6092 19.9492 11.6642 20.0686 11.7043C20.5676 11.8705 21.0399 11.5138 21.4384 11.2836C21.4154 11.9755 21.4633 12.6411 20.6986 13.0221L21.2246 13.215C20.7707 13.559 20.6343 13.7413 20.0891 13.8121C20.3422 13.936 20.6616 13.9336 20.9304 13.9589C20.8614 14.1504 20.8029 14.41 20.662 14.5824C21.7793 14.7147 22.2277 14.0772 22.5722 14.1025C23.3061 14.1579 23.263 15.5448 21.449 15.5469L21.6371 15.8574C21.6371 15.8574 21.294 16.0579 20.9787 16.0962C21.0984 16.1943 21.2164 16.3253 21.3173 16.4259L21.0279 16.6759C21.7663 16.8083 21.9777 16.0202 22.4569 16.3999C23.1898 16.981 21.5755 18.2054 20.0265 18.0235C20.1571 18.1897 20.5197 18.4349 20.6777 18.5621C19.416 19.7538 20.0357 20.8759 19.5196 21.6982C20.6052 21.626 21.411 20.8274 21.6018 19.9641L21.9083 20.486C22.0181 20.1419 22.2192 19.7859 22.3447 19.5325C22.5896 20.0407 22.9816 20.051 23.3591 20.0537C23.2736 18.8364 24.8032 17.612 24.1318 16.2231C23.9977 15.9453 24.0842 15.6047 24.3732 15.459C25.4 14.9388 24.9236 17.0993 25.9493 17.1653C25.753 16.9191 25.6798 16.4064 25.6521 16.3619C25.8689 16.4187 26.3895 16.7515 26.6244 16.3253C26.0266 15.9997 25.8545 15.5082 25.7591 15.0161Z" fill="#FFFFFE"/>
<path d="M15.4762 11.0215C15.1893 11.4152 14.6684 11.6793 14.0746 11.6793C13.9364 11.6793 13.8024 11.6642 13.6762 11.6392C13.7114 11.8017 13.7952 11.9689 13.9682 12.1136C13.8978 12.5846 14.1016 13.0255 14.6071 13.1414C14.6612 13.3812 14.8093 13.5631 15.0596 13.649L14.7077 14.056C14.5719 14.2119 14.3947 14.2615 14.2518 14.2437L12.6781 14.0645C12.7462 13.8897 12.5642 13.6876 12.0659 13.7745L12.6836 12.0442L12.307 11.2415L11.5929 11.852L11.5402 13.6667L11.2327 13.5169C10.8363 13.3446 10.7197 14.0669 11.097 14.07L11.2492 14.0717C11.2389 14.1459 11.2628 14.228 11.3217 14.2543C11.2505 14.2831 11.2286 14.4175 11.3179 14.4647C11.2283 14.5081 11.2153 14.6453 11.2882 14.7044C11.2105 14.8382 11.1958 15.1268 11.4711 15.2C11.6979 15.2592 11.8402 15.016 11.8867 14.8748L14.3356 15.6334C14.68 15.7329 14.929 15.6768 15.2166 15.4244L15.8559 14.8655C15.7755 15.2308 15.9065 15.5605 16.1845 15.6693C16.1845 15.6693 16.1401 16.0041 16.1575 16.1433L17.014 16.1447H18.3632V12.1174C18.3632 11.7418 18.4699 11.367 18.6026 11.0215H15.4762ZM11.8084 17.7984L11.8559 17.8582C11.9226 17.9403 11.9613 17.9208 12.0375 17.877L12.1487 17.8182C12.2181 17.7659 12.674 17.9393 12.7 17.5607C12.7503 17.8435 12.4137 18.4386 12.6159 18.7714L12.8895 19.2195L11.9961 19.2321C11.8983 19.2321 11.8474 19.291 11.8203 19.345L11.5867 19.8296C11.5262 19.9569 11.5303 20.0903 11.6073 20.1785L11.7653 20.3564C11.7653 20.3564 11.8946 20.2462 11.9363 20.1029L11.8662 20.0308C11.8084 19.9747 11.8084 19.923 11.8402 19.8532L11.9842 19.5547C12.0399 19.4373 12.096 19.4124 12.2229 19.4418L12.9449 19.5978C12.9983 19.6104 13.0834 19.6364 13.1347 19.5482C13.2226 19.3912 13.3796 19.3809 13.538 19.4049C13.9344 19.4644 14.8493 19.5591 15.1759 19.1781C15.559 19.6867 16.3077 19.6867 16.2584 19.9528L16.1004 20.8273H16.3388L16.4835 19.9336C16.4999 19.8296 16.5638 19.6863 16.4517 19.6063C16.4058 19.5704 16.3846 19.5526 16.2803 19.3734C16.1442 19.135 16.1514 18.7783 16.0197 18.4715C16.1442 18.3247 16.2789 18.2748 16.3966 18.3018C16.6603 18.3665 16.7321 18.8217 17.107 19.1935C17.0642 19.0283 17.0464 18.847 16.9575 18.69C16.9575 18.69 17.2178 18.8918 17.2848 19.1278C17.3276 19.2763 17.371 19.384 17.5041 19.4524C17.5927 19.4845 17.6977 19.4418 17.8033 19.3152C17.8033 19.3152 17.5561 18.964 17.3751 18.7341C17.1272 18.4181 16.7954 18.1018 16.3432 18.1383C16.2013 18.1503 16.0635 18.215 15.9328 18.2926C15.4198 18.0053 15.021 18.3094 14.8619 18.3094L13.9009 18.2522C13.7114 18.2403 13.5626 18.021 13.5626 18.021C13.538 17.2077 12.8847 16.8835 12.6593 16.8835C12.6593 16.8835 12.6805 16.7367 12.621 16.6858L12.4199 16.9378L11.8628 16.7347L12.2995 17.0924L11.8255 17.6434C11.7769 17.6978 11.7844 17.769 11.8084 17.7984Z" fill="#FFFFFE"/>
<path d="M11.1773 18.9411C11.0433 19.0451 11.0487 19.1904 11.1301 19.3526L11.2109 19.5027L11.4209 19.343L11.3733 19.2397C11.3395 19.1672 11.3405 19.0933 11.4 19.0468L11.7006 18.8197C11.7851 18.7581 11.8115 18.7516 11.9017 18.7646L12.5372 18.8983C12.5372 18.8983 12.4415 18.7581 12.4086 18.6155L11.8104 18.5365C11.7256 18.5255 11.6746 18.5621 11.6004 18.6179L11.1773 18.9411ZM15.2406 20.8274H15.4803L15.8654 19.8772C15.8791 19.8447 15.8972 19.8297 15.912 19.8027C15.7389 19.7346 15.6377 19.6857 15.4933 19.6029C15.5901 19.7325 15.6657 19.7883 15.6257 19.9077L15.2406 20.8274ZM14.4891 7.53534L15.3897 7.1899C15.3897 7.1899 15.3897 7.30037 15.1301 7.47651C14.8992 7.63658 14.4891 7.80725 14.4891 7.80725V7.53534ZM14.4891 6.87695L15.5121 6.51167C15.5121 6.51167 15.3897 6.64129 15.1301 6.81949C14.8992 6.97818 14.4891 7.14885 14.4891 7.14885V6.87695ZM14.4891 6.25823L15.6082 5.84575C15.6082 5.84575 15.3897 6.02292 15.1301 6.20077C14.8992 6.36083 14.4891 6.53116 14.4891 6.53116V6.25823ZM15.4441 7.98339L15.8887 5.42609L14.2036 5.99863V8.63631L15.4441 7.98339Z" fill="#FFFFFE"/>
<path fill-rule="evenodd" clip-rule="evenodd" d="M12.4449 10.2459L12.4825 10.3047H12.8293L12.8331 10.3652C12.8375 10.423 12.8502 10.4829 12.8697 10.5434C12.9234 10.709 13.0301 10.8817 13.2025 11.0216C13.4015 11.182 13.6895 11.299 14.0729 11.299C14.9033 11.299 15.2785 10.7613 15.3148 10.3652L15.3168 10.3047H15.6654L15.7023 10.2459C16.03 9.73319 16.4298 9.16372 16.8953 9.083L15.6277 8.34766L14.0736 9.19314L12.5184 8.34766L11.2526 9.083C11.716 9.16372 12.1155 9.73319 12.4449 10.2459Z" fill="#FFFFFE"/>
<path d="M13.6584 6.87691V7.14882C13.6584 7.14882 13.249 6.97884 13.0184 6.81945C12.7568 6.64092 12.6354 6.51163 12.6354 6.51163L13.6584 6.87691ZM13.6584 6.25819V6.53113C13.6584 6.53113 13.249 6.3608 13.0184 6.20073C12.7568 6.02254 12.5379 5.84572 12.5379 5.84572L13.6584 6.25819ZM13.6584 7.80756C13.6584 7.80756 13.249 7.63654 13.0184 7.47716C12.7568 7.30068 12.7568 7.18986 12.7568 7.18986L13.6584 7.53531V7.80756ZM13.9419 8.63628V5.9986L12.2585 5.42571L12.7014 7.98335L13.9419 8.63628ZM14.0739 4.29772C13.1108 4.29772 12.3891 4.61341 12.2325 4.98313L14.0739 5.71062L15.914 4.98313C15.7577 4.61341 15.0367 4.29772 14.0739 4.29772ZM14.0746 3.24224C14.7843 3.24224 15.4943 3.45703 15.9725 3.73612C16.0501 3.47892 16.1339 3.2956 16.2468 3.08525L15.8104 3.15229L15.4584 2.3995L14.8 2.74939L14.0746 2.03217L13.3482 2.74939L12.6901 2.3995L12.3351 3.15229L11.8997 3.08525C12.0136 3.2956 12.096 3.47892 12.1757 3.73612C12.6545 3.45703 13.3625 3.24224 14.0746 3.24224ZM26.0905 9.03884C26.3289 9.00805 26.5198 8.92939 26.753 8.75462C26.2503 8.62088 25.1962 8.24021 24.2963 8.41088C23.9987 8.44987 23.8342 8.57061 23.9402 8.63935C24.4235 8.95983 25.0207 9.70304 25.4547 10.5708C25.8361 10.0974 25.676 9.47491 25.5963 9.29672C26.3573 9.75537 26.556 9.97837 26.9097 9.89116C26.7216 9.60249 26.4555 9.34289 26.0905 9.03884ZM2.69176 10.5708C3.12613 9.70304 3.72364 8.95983 4.20795 8.63935C4.31568 8.57061 4.14878 8.44987 3.85327 8.41088C2.95238 8.24021 1.89622 8.62088 1.39344 8.75462C1.6291 8.92939 1.81755 9.00805 2.05731 9.03884C1.691 9.34358 1.42594 9.60249 1.23782 9.89116C1.59318 9.97837 1.79122 9.75537 2.55119 9.29638C2.47252 9.4756 2.31177 10.0974 2.69176 10.5708Z" fill="#FFFFFE"/>
<path d="M6.54637 19.9641L6.23958 20.486C6.1291 20.142 5.93005 19.7859 5.80247 19.5325C5.55622 20.0407 5.16665 20.051 4.79043 20.0537C4.87388 18.8365 3.34367 17.612 4.01677 16.2231C4.15085 15.9453 4.06363 15.6047 3.77462 15.459C2.7489 14.9388 3.22328 17.0993 2.19858 17.1653C2.39456 16.9191 2.46775 16.4064 2.49751 16.3619C2.2793 16.4187 1.75772 16.7515 1.52309 16.3257C2.12197 15.9997 2.29367 15.5089 2.38806 15.0161C2.50743 14.3926 2.5625 14.1036 2.68323 13.8477C2.80978 13.5744 3.01191 13.3371 3.44525 12.7751C3.34265 12.7898 2.18901 13.0337 1.92941 12.9123C3.92477 11.6868 3.4757 10.1299 6.5173 8.74235C5.7197 8.14963 4.90432 7.67661 5.48918 6.54486C6.32269 7.5463 7.90625 7.20017 8.76131 6.73502C7.91651 6.56572 6.82717 5.82045 6.5686 4.99173C6.88668 4.94317 7.29951 5.28861 7.53687 5.4497C7.6511 5.14325 7.69659 4.78755 8.06735 4.71093C7.57244 5.76915 8.54994 6.32083 9.48161 6.32494C9.62628 6.32494 10.2293 6.26406 10.2293 6.26406C10.1325 6.06568 9.74325 5.5246 10.0261 5.30639C10.2549 5.51982 10.5261 5.69083 10.7734 5.88099C12.5851 7.2826 9.91187 8.58263 8.81808 9.17227C7.10318 10.0995 7.56184 11.2029 8.27872 11.4847C8.27598 11.6092 8.19937 11.6642 8.08 11.7043C7.5786 11.8705 7.10797 11.5134 6.70849 11.2836C6.73209 11.9762 6.68489 12.6411 7.44999 13.0221L6.9226 13.214C7.37578 13.5591 7.51395 13.7413 8.05914 13.8121C7.80467 13.936 7.4883 13.9336 7.21776 13.9589C7.28582 14.1508 7.34226 14.41 7.48522 14.5824C6.36886 14.7147 5.92184 14.0772 5.57537 14.1025C4.83865 14.1579 4.88517 15.5448 6.69823 15.5469L6.51012 15.8574C6.51012 15.8574 6.85351 16.0579 7.16851 16.0962C7.04812 16.1937 6.93252 16.3257 6.83059 16.4259L7.12029 16.6759C6.37981 16.8083 6.17049 16.0202 5.69063 16.3999C4.95768 16.981 6.57271 18.2054 8.1207 18.0235C7.99073 18.19 7.62716 18.4349 7.47052 18.5622C8.73121 19.7538 8.10941 20.8759 8.62826 21.6982C7.54029 21.6253 6.73517 20.8274 6.54637 19.9641ZM7.96474 18.6234C8.31531 18.3457 8.60535 18.2068 8.59064 17.5347C8.06461 17.8035 6.57373 17.7892 5.95091 16.9317C5.77443 16.6875 5.96322 16.5651 6.13287 16.757C6.55903 17.2406 7.34944 17.0217 7.63742 16.8821C7.59193 16.7152 7.46368 16.4991 7.35594 16.4064C7.46368 16.3004 7.7691 16.1423 7.83101 15.8704C7.66786 15.7822 7.03546 15.7186 7.03546 15.7186C7.13704 15.6204 7.26359 15.4843 7.18801 15.1221C6.54158 15.3208 5.74365 15.051 5.56169 14.8119C5.3835 14.5766 5.56545 14.3563 5.7156 14.5123C6.0371 14.8498 7.62477 15.2377 8.2151 14.6494C7.9962 14.5889 7.75371 14.3926 7.71062 14.2711C8.25683 14.2164 8.69256 13.8939 8.72882 13.492C8.42647 13.492 7.85529 13.4701 7.66102 13.3237C7.92301 13.2269 8.08855 13.1322 8.17132 12.8388C7.17227 12.7782 7.09292 12.036 7.08745 11.9132C7.73798 12.2884 8.8841 12.1212 8.5879 11.1974C8.04648 11.1683 7.50096 10.2924 8.98978 9.48796C10.3438 8.75466 11.8826 7.96459 11.7465 6.66456C11.6579 5.83208 10.2878 5.26467 10.114 4.84364C9.54215 5.11589 9.42723 5.43192 9.68545 5.96102C9.68545 5.96102 8.41108 6.08757 8.31052 5.30366C8.26709 4.95206 8.50171 4.62303 8.75413 4.37199C8.61082 4.37199 7.6511 4.11513 7.36175 4.89699C6.82375 4.52966 6.36373 4.54334 6.00119 4.93085C6.57921 5.2739 6.9373 6.45183 7.8936 6.79932C7.21332 7.16802 6.11337 7.01377 5.47174 5.88099C4.86431 6.7959 4.51476 7.70226 5.81718 8.6695C3.44628 9.74858 3.46372 11.8103 1.40167 12.7929C1.61099 13.3542 2.05186 13.3542 2.6138 13.2663C1.72215 14.4247 2.48212 15.6372 1.07025 16.1328C1.20296 16.6051 1.46802 16.9827 1.98824 16.8445C1.84049 17.075 1.74301 17.0706 1.51249 17.324C2.28409 17.81 3.199 17.4581 3.40626 15.8992C3.44286 15.6204 3.82627 15.7949 3.69391 16.0681C2.81422 17.8863 5.03839 19.2544 4.2514 20.5886C4.94536 20.5596 5.47379 20.5052 5.7628 20.2716C5.90474 20.551 5.98956 20.8284 5.95912 21.1017C6.34253 21.024 6.48173 20.7973 6.50807 20.5367C6.75979 21.2696 7.65726 22.0522 9.09341 22.0522C8.33139 20.9666 9.04108 19.8642 7.96474 18.6234Z" fill="#1A1919"/>
<path d="M4.55681 15.6146C4.81914 15.8882 5.13654 15.9163 5.73815 15.8786C5.07702 15.7983 4.70559 15.6372 4.47404 15.1984C4.44052 14.9709 4.41829 14.7284 4.40906 14.4699C4.38819 13.7735 4.61735 12.9444 5.09857 12.036C5.09549 12.6055 5.54662 13.5012 6.55388 13.65C5.64854 13.2543 5.11602 12.3627 5.40639 11.4994C5.59485 11.1984 5.80759 10.8875 6.04529 10.5708C6.16466 10.4186 6.28094 10.2715 6.3945 10.1351C6.27342 10.5746 6.80526 11.0291 7.16097 11.1054C6.96841 10.9169 6.55388 10.3047 7.51086 9.28104C7.24374 9.40758 6.94857 9.58646 6.72455 9.76055C8.46305 7.88251 9.8927 7.82949 10.5494 6.88483C9.59856 7.53501 7.08059 7.88593 5.94884 7.57879C6.57303 7.99572 8.07793 7.95775 8.4456 7.87977C7.21877 9.07274 4.54005 10.3047 4.07627 11.4009C4.7285 10.685 5.15124 10.554 5.71558 10.3697C5.27095 11.0336 4.87044 11.6174 4.59409 12.2949C3.88166 13.8429 2.92878 13.8628 2.86551 15.1395C3.19077 14.1501 3.85019 13.899 4.30782 13.2495C4.2271 13.6641 4.18948 14.1244 4.20384 14.6552C4.21992 15.2326 4.33586 15.7401 4.51919 16.1943C4.47267 16.825 4.52876 17.9038 5.25248 18.6148C4.76065 17.9927 4.65531 16.981 4.69909 16.5863C5.26514 17.6791 6.88051 19.1891 7.661 20.2035C6.88051 18.8984 4.96689 17.3743 4.55681 15.6146ZM22.4336 10.3697C22.9952 10.554 23.419 10.685 24.0712 11.4009C23.6092 10.3047 20.9274 9.07274 19.7009 7.87977C20.0692 7.95707 21.5745 7.99572 22.1983 7.57879C21.0679 7.88593 18.5496 7.53501 17.5978 6.88483C18.2555 7.82949 19.6838 7.88251 21.423 9.76055C21.2 9.58646 20.9045 9.40758 20.6363 9.28104C21.5923 10.3047 21.1791 10.9169 20.9852 11.1057C21.3419 11.0291 21.8737 10.5746 21.7527 10.1351C21.8669 10.2715 21.9835 10.4186 22.1022 10.5708C22.3416 10.8875 22.553 11.1984 22.7408 11.4994C23.0308 12.3627 22.4976 13.2543 21.5943 13.65C22.6016 13.5016 23.0534 12.6055 23.0482 12.036C23.5298 12.9444 23.7603 13.7735 23.7384 14.4699C23.7296 14.7284 23.707 14.9709 23.6731 15.1984C23.4409 15.6372 23.0695 15.7983 22.4097 15.8786C23.012 15.9163 23.3277 15.8882 23.5917 15.6146C23.1813 17.3743 21.2677 18.8984 20.4862 20.2035C21.2677 19.1891 22.8807 17.6791 23.4491 16.5863C23.4929 16.981 23.3865 17.9927 22.8957 18.6148C23.6191 17.9038 23.6752 16.825 23.6283 16.1936C23.8113 15.7401 23.9262 15.2326 23.9433 14.6552C23.9608 14.1244 23.9201 13.6641 23.8397 13.2495C24.2973 13.8994 24.9567 14.1501 25.2827 15.1395C25.2201 13.8628 24.2669 13.8429 23.5527 12.2949C23.2774 11.6174 22.8779 11.0336 22.4336 10.3697Z" fill="#1A1919"/>
<path d="M25.6521 16.3619C25.6798 16.4064 25.753 16.9191 25.9493 17.1653C24.9236 17.0993 25.3993 14.9388 24.3732 15.459C24.0842 15.6047 23.9977 15.9453 24.1318 16.223C24.8025 17.612 23.2736 18.8364 23.3595 20.0537C22.9816 20.051 22.5896 20.0407 22.345 19.5325C22.2192 19.7859 22.0181 20.1419 21.9083 20.4853L21.6015 19.9641C21.411 20.8273 20.6052 21.626 19.5196 21.6981C20.0357 20.8759 19.4153 19.7537 20.6784 18.5621C20.5193 18.4349 20.1571 18.1897 20.0265 18.0234C21.5755 18.2054 23.1898 16.981 22.4569 16.3999C21.9774 16.0202 21.7663 16.8082 21.0279 16.6759L21.3173 16.4259C21.2164 16.3257 21.0984 16.1943 20.9787 16.0962C21.294 16.0578 21.6371 15.8574 21.6371 15.8574L21.4489 15.5469C23.2627 15.5448 23.3061 14.1579 22.5721 14.1025C22.2277 14.0772 21.7793 14.7147 20.662 14.5824C20.8029 14.41 20.8614 14.1507 20.9304 13.9589C20.6616 13.9335 20.3422 13.9359 20.0884 13.8121C20.6342 13.7413 20.7707 13.559 21.2246 13.215L20.6992 13.0221C21.4633 12.641 21.4154 11.9762 21.4387 11.2836C21.0399 11.5137 20.5676 11.8705 20.0685 11.7042C19.9492 11.6642 19.8715 11.6092 19.8691 11.4847C20.5864 11.2028 21.043 10.0995 19.3294 9.17225C18.2367 8.58261 15.5614 7.28258 17.3741 5.88097C17.6221 5.69081 17.8912 5.5198 18.1194 5.30638C18.4039 5.52459 18.0154 6.06566 17.9186 6.26404C17.9186 6.26404 18.5212 6.32492 18.6639 6.32492C19.5983 6.32081 20.5768 5.76913 20.0815 4.70989C20.4523 4.78719 20.4964 5.14357 20.6096 5.449C20.8473 5.28859 21.2601 4.94315 21.5799 4.99171C21.3203 5.82043 20.2327 6.5657 19.3869 6.735C20.2409 7.20015 21.8259 7.54628 22.659 6.54484C23.2432 7.67659 22.4288 8.14961 21.6299 8.74233C24.6718 10.1292 24.2227 11.6868 26.2184 12.9123C25.9602 13.0337 24.8042 12.7898 24.7009 12.7751C25.1366 13.3371 25.3394 13.5744 25.4646 13.8477C25.5857 14.1035 25.6394 14.3922 25.7591 15.016C25.8545 15.5089 26.0266 15.9997 26.6244 16.3257C26.3895 16.7515 25.8689 16.4187 25.6521 16.3619ZM25.5337 13.2659C26.095 13.3538 26.5365 13.3538 26.7458 12.7929C24.6831 11.8103 24.7009 9.74856 22.3303 8.66948C23.6334 7.70224 23.2818 6.79588 22.6768 5.88097C22.0359 7.01375 20.9325 7.168 20.2553 6.7993C21.2092 6.45181 21.5693 5.27388 22.1474 4.93049C21.7858 4.54264 21.3241 4.52964 20.7854 4.89629C20.4944 4.11511 19.5364 4.37197 19.3924 4.37197C19.6441 4.62301 19.8818 4.9517 19.8367 5.30364C19.7375 6.08755 18.4627 5.96101 18.4627 5.96101C18.7199 5.4319 18.6057 5.11587 18.0335 4.84362C17.8587 5.26465 16.4906 5.83206 16.4017 6.6642C16.2646 7.96457 17.805 8.75464 19.1577 9.48794C20.6462 10.2924 20.1004 11.1683 19.5613 11.1974C19.2621 12.1219 20.4082 12.2884 21.0604 11.9132C21.0573 12.036 20.9746 12.7782 19.9752 12.8391C20.0597 13.1322 20.2245 13.2269 20.4862 13.3237C20.2909 13.4701 19.7207 13.492 19.419 13.492C19.4546 13.8939 19.8914 14.2164 20.4379 14.2711C20.3945 14.3922 20.1517 14.5889 19.9331 14.6494C20.5234 15.2377 22.1104 14.8498 22.4336 14.5122C22.5814 14.3563 22.7616 14.5765 22.5858 14.8112C22.4032 15.0509 21.6059 15.3208 20.9592 15.1221C20.885 15.4839 21.0094 15.6211 21.1117 15.7186C21.1117 15.7186 20.4793 15.7815 20.3155 15.8704C20.377 16.1423 20.6838 16.3003 20.7916 16.4064C20.6838 16.4991 20.5559 16.7152 20.5098 16.8821C20.7998 17.0217 21.5895 17.2402 22.014 16.7569C22.1857 16.5651 22.3731 16.6875 22.1976 16.9314C21.5745 17.7892 20.0829 17.8032 19.5565 17.5347C19.5418 18.2068 19.8325 18.3449 20.1824 18.6234C19.1044 19.8642 19.8168 20.9666 19.0548 22.0521C20.4899 22.0521 21.3874 21.2686 21.6395 20.5366C21.6678 20.7973 21.8057 21.024 22.1881 21.1017C22.1586 20.8277 22.2441 20.551 22.3834 20.2716C22.6737 20.5052 23.2035 20.5595 23.8961 20.5886C23.1108 19.2544 25.3343 17.8863 24.4522 16.0681C24.3219 15.7948 24.705 15.6211 24.7419 15.8991C24.9482 17.4581 25.8641 17.81 26.6364 17.324C26.4042 17.0706 26.3081 17.075 26.1596 16.8445C26.6795 16.9827 26.9442 16.6051 27.0776 16.1327C25.6668 15.6372 26.4267 14.4247 25.5337 13.2659ZM11.1773 18.9411L11.6004 18.6193C11.6763 18.5621 11.7256 18.5255 11.8114 18.5365L12.4086 18.6155C12.4414 18.7581 12.5372 18.8983 12.5372 18.8983L11.9017 18.7646C11.8114 18.754 11.7851 18.7581 11.7006 18.819L11.4 19.0468C11.3398 19.0933 11.3384 19.1672 11.3723 19.2397L11.4208 19.3443L11.2108 19.5034L11.1301 19.3525C11.0487 19.1904 11.0433 19.044 11.1773 18.9411ZM12.1476 17.8182L12.0375 17.8767C11.9612 17.9208 11.9226 17.9403 11.8559 17.8579L11.8084 17.7974C11.7844 17.769 11.7769 17.6978 11.8255 17.6435L12.2985 17.0925L11.8627 16.7347L12.4178 16.9392L12.621 16.6858C12.6805 16.7368 12.6597 16.8831 12.6597 16.8831C12.8847 16.8831 13.538 17.2077 13.5629 18.0214C13.5629 18.0214 13.7114 18.2399 13.8991 18.2512L14.8616 18.3094C15.021 18.3094 15.4198 18.0053 15.9328 18.2926C16.0621 18.215 16.2013 18.1524 16.3432 18.1363C16.7954 18.1028 17.1272 18.4181 17.3751 18.7349C17.556 18.964 17.804 19.3153 17.804 19.3153C17.6973 19.4418 17.5926 19.4846 17.5041 19.4524C17.371 19.384 17.3276 19.2763 17.2848 19.1278C17.2171 18.8918 16.9575 18.6901 16.9575 18.6901C17.0461 18.8484 17.0642 19.0283 17.107 19.1935C16.7304 18.8217 16.6599 18.3665 16.3966 18.3039C16.28 18.2748 16.1442 18.3248 16.0187 18.4705C16.1514 18.7783 16.1442 19.135 16.2803 19.3734C16.3839 19.5516 16.4055 19.568 16.4517 19.6063C16.5628 19.6864 16.4999 19.8297 16.4831 19.9336L16.3405 20.8277H16.1004L16.2584 19.9528C16.307 19.6864 15.559 19.6864 15.1759 19.1781C14.8493 19.5598 13.9344 19.4644 13.538 19.4049C13.3786 19.3809 13.2226 19.3912 13.1347 19.5485C13.0834 19.6364 12.9972 19.6101 12.9449 19.5978L12.2229 19.4418C12.096 19.4124 12.0409 19.4374 11.9845 19.554L11.8402 19.8529C11.8084 19.923 11.8104 19.9743 11.8679 20.0308L11.9359 20.104C11.8945 20.2473 11.7646 20.3564 11.7646 20.3564L11.6073 20.1789C11.5303 20.0896 11.5262 19.9596 11.5867 19.8331L11.8203 19.345C11.8484 19.291 11.8983 19.2322 11.9961 19.2322L12.8895 19.2185L12.6159 18.7728C12.4124 18.4387 12.7503 17.8432 12.7 17.5617C12.6744 17.9393 12.2181 17.7669 12.1476 17.8182ZM15.8654 19.8772L15.4796 20.8277H15.2406L15.6257 19.9073C15.6657 19.7883 15.5901 19.7329 15.4933 19.6029C15.6366 19.6836 15.7389 19.7366 15.9119 19.8026C15.8972 19.8297 15.8791 19.8447 15.8654 19.8772ZM11.1647 19.7695L11.5984 19.4018L11.5323 19.2701C11.4851 19.1757 11.5105 19.1703 11.5604 19.1326L11.7895 18.962C11.8422 18.9185 11.8983 18.9237 11.9626 18.939L12.6504 19.1005H11.925C11.7574 19.1118 11.7088 19.1757 11.6483 19.3002L11.5984 19.4018L11.412 19.7852C11.3487 19.9169 11.3155 20.093 11.4821 20.2914L11.6138 20.4484L11.3466 20.9888H11.5717L11.7564 20.6139C11.7711 20.6002 12.044 20.3513 12.1018 20.093C12.0232 20.0287 11.9667 19.9839 12.0105 19.894L12.0943 19.7148C12.1217 19.6552 12.1312 19.631 12.2113 19.6467L12.9326 19.8026C13.0225 19.8276 13.1546 19.867 13.251 19.7219C13.3495 19.5711 13.3632 19.5872 13.5924 19.6101L13.9607 19.6491C14.4642 19.697 14.9666 19.5711 15.1626 19.4158C15.231 19.5725 15.3671 19.6915 15.4311 19.8133C15.4543 19.8584 15.4153 19.922 15.3842 20.0014L14.9707 20.9888H15.6082L15.9691 20.0876C16.0026 20.0014 16.0511 19.9326 16.0884 19.8981L15.8815 20.9888H16.5002L16.6644 19.9097C16.7006 19.6699 16.6791 19.5923 16.5638 19.4938C16.306 19.2763 16.3118 18.819 16.2287 18.5416C16.2724 18.5163 16.3231 18.5036 16.3839 18.5108C16.519 18.5228 16.6203 18.8672 16.7793 19.0888C17.0957 19.5338 17.528 20.025 18.0229 19.3331C17.975 19.2544 17.9234 19.1822 17.8635 19.1138L17.7253 18.9517C17.645 18.8621 17.2619 18.424 17.1018 18.2659C16.7393 17.9 16.1815 17.9561 15.9591 18.1332C15.4564 17.8695 14.9256 18.1466 14.8 18.1363L13.9337 18.084C13.8944 18.0813 13.8342 18.0683 13.7921 18.0005L13.9532 17.9479C13.8024 17.3209 13.4237 16.7956 12.7619 16.7056C12.7619 16.7056 12.7233 16.5076 12.622 16.4693L12.4247 16.7022C12.3686 16.7097 12.3081 16.7272 12.2585 16.7487L11.4137 16.4344L12.0481 17.075C12.0481 17.075 11.7188 17.5409 11.6254 17.6363C11.5628 17.7232 11.5689 17.7912 11.6387 17.8747L11.7615 18.0361C11.8255 18.1199 11.8945 18.1165 11.9961 18.0648L12.1353 17.9927C12.1959 17.9417 12.399 18.0419 12.4866 17.9619C12.4305 18.1445 12.4028 18.3196 12.3901 18.4588L11.8203 18.3908C11.6962 18.374 11.6397 18.3908 11.5638 18.4496L11.0781 18.8238C10.9198 18.9455 10.8705 19.1552 10.968 19.3597L11.1647 19.7695ZM13.0184 7.47719C13.249 7.63657 13.6584 7.80758 13.6584 7.80758V7.53534L12.7568 7.18989C12.7568 7.18989 12.7568 7.30071 13.0184 7.47719ZM13.6584 7.14885V6.87694L12.6354 6.51166C12.6354 6.51166 12.7568 6.64129 13.0184 6.81948C13.249 6.97818 13.6584 7.14885 13.6584 7.14885ZM13.6584 6.53116V6.25822L12.5379 5.84574C12.5379 5.84574 12.7568 6.02291 13.0184 6.20076C13.249 6.36083 13.6584 6.53116 13.6584 6.53116Z" fill="#1A1919"/>
<path d="M16.8074 10.2459H17.9532C17.906 10.0793 17.7278 9.91138 17.3929 9.91138C17.0769 9.91138 16.8864 10.0947 16.8074 10.2459ZM15.6083 5.84576L14.4892 6.25824V6.53118C14.4892 6.53118 14.8992 6.36085 15.1301 6.20078C15.3907 6.02293 15.6083 5.84576 15.6083 5.84576ZM15.3904 7.18991L14.4892 7.53535V7.8076C14.4892 7.8076 14.8992 7.63659 15.1301 7.47721C15.3904 7.30073 15.3904 7.18991 15.3904 7.18991ZM15.5122 6.51168L14.4892 6.87696V7.14887C14.4892 7.14887 14.8996 6.97888 15.1301 6.8195C15.3904 6.64131 15.5122 6.51168 15.5122 6.51168ZM10.7515 9.91138C10.4174 9.91138 10.2395 10.0793 10.1917 10.2459H11.3388C11.2571 10.0944 11.0696 9.91138 10.7515 9.91138Z" fill="#1A1919"/>
<path d="M14.0739 5.71062L12.2325 4.98314C12.3891 4.61342 13.1108 4.29773 14.0739 4.29773C15.0367 4.29773 15.7577 4.61342 15.914 4.98314L14.0739 5.71062ZM15.4441 7.98336L14.2036 8.63628V5.99861L15.8894 5.42606L15.4441 7.98336ZM16.8953 9.08296C16.4298 9.16368 16.03 9.73315 15.7023 10.2458L15.6657 10.3047H15.3162L15.3148 10.3652C15.2785 10.7613 14.9033 11.2989 14.0729 11.2989C13.6898 11.2989 13.4015 11.1816 13.2025 11.0215C13.0301 10.8817 12.923 10.7089 12.8697 10.5434C12.8502 10.4835 12.8375 10.423 12.8324 10.3652L12.8293 10.3047H12.4825L12.4449 10.2458C12.1155 9.73315 11.716 9.16368 11.2526 9.08296L12.5184 8.34762L14.0739 9.1931L15.6277 8.34762L16.8953 9.08296ZM18.603 11.0215C18.47 11.367 18.3632 11.7418 18.3632 12.1174V16.1447H17.895C17.6819 15.9385 17.5024 15.2524 17.5024 15.2524C17.3857 15.4996 17.5195 15.9997 17.644 16.1447H17.041C16.8912 15.9426 16.7619 15.2274 16.7619 15.2274C16.5816 15.433 16.6959 15.9898 16.8077 16.1447H16.4069C16.3819 15.8588 16.4637 15.5468 16.4637 15.5468C16.254 15.5082 16.031 15.3981 16.0313 15.1648C16.1377 15.264 16.1808 15.2623 16.3275 15.2592L16.4979 15.1251C15.9328 15.1436 15.9065 14.5232 16.3545 14.2331C15.9065 14.2475 15.5723 13.9811 15.7351 13.5057C15.4167 13.3411 15.3045 12.8021 15.5398 12.5648C15.3695 12.3801 15.3411 12.0172 15.4502 11.7692C15.2248 11.7692 14.9707 11.6793 14.8291 11.5253C14.8182 11.5305 14.8052 11.5339 14.7936 11.538C15.0757 11.4227 15.3148 11.2439 15.4762 11.0215H18.603ZM18.3643 19.0221C18.3643 19.8621 17.9761 20.5007 17.3303 20.854L17.5622 20.3837H17.3382L17.0413 20.9864C16.7342 21.103 16.3846 21.1666 15.9995 21.1666C14.8209 21.1666 14.5093 21.2145 14.0746 21.6489C13.6372 21.2145 13.3263 21.1666 12.1497 21.1666C11.7667 21.1666 11.4181 21.104 11.1124 20.9888H11.1199L11.4171 20.3837H11.1938L10.9331 20.9132C10.8706 20.8838 10.8107 20.8523 10.7526 20.8174L10.9667 20.3837H10.744L10.585 20.7069C10.0801 20.3355 9.78395 19.7554 9.78395 19.0221V16.381H18.3643V19.0221ZM12.5236 14.1986L12.8847 14.2437C12.9121 14.4414 12.8604 14.7776 12.7315 14.9651L12.3809 14.8642C12.4743 14.6422 12.4976 14.4349 12.5236 14.1986ZM12.0023 13.9339C12.0023 13.9339 12.3348 13.9181 12.4285 13.9534C12.4976 13.9821 12.4504 14.0984 12.3611 14.0854C12.2677 14.0741 12.0023 13.9339 12.0023 13.9339ZM11.9804 12.6161L11.6822 13.7033L11.7841 11.9491L12.2462 11.5537L12.4815 12.0698L11.887 13.7735L12.044 12.6267C12.0587 12.547 11.9938 12.5377 11.9804 12.6161ZM11.7513 14.4291C11.5953 14.4914 11.4356 14.4065 11.4848 14.3056C11.557 14.3713 11.7591 14.3392 11.7591 14.3392L11.7513 14.4291ZM11.4578 14.5741C11.5303 14.6436 11.7485 14.6172 11.7485 14.6172L11.7564 14.661C11.661 14.7879 11.3973 14.7304 11.4578 14.5741ZM11.1154 13.8733C11.032 13.8176 11.0696 13.6968 11.1623 13.6968C11.2632 13.6992 11.399 13.8142 11.5324 13.8713C11.5324 13.8713 11.1825 13.9188 11.1154 13.8733ZM11.4472 14.8382C11.4472 14.8382 11.5471 14.8799 11.6743 14.8902C11.6596 14.9596 11.6056 15.0266 11.5204 15.0075C11.4493 14.9917 11.4171 14.9032 11.4472 14.8382ZM11.6822 14.1808C11.5142 14.2352 11.4404 14.1138 11.4476 14.0105C11.7769 13.8908 11.9236 13.9681 12.0198 14.0293C12.108 14.0854 12.1819 14.2437 12.3006 14.3429C12.2814 14.478 12.2397 14.673 12.1914 14.8036C11.8549 14.7174 11.8375 14.4206 11.9626 14.2403C11.8925 14.1579 11.818 14.137 11.6822 14.1808ZM13.1412 14.2773L13.5014 14.32C13.537 14.518 13.4696 14.9387 13.3338 15.1395L12.9665 15.0331C13.1135 14.8406 13.1672 14.4982 13.1412 14.2773ZM13.761 14.3532L14.0582 14.3901C14.1057 14.6371 14.0746 15.0643 13.917 15.3071L13.5715 15.2069C13.7227 15.0006 13.7942 14.5765 13.761 14.3532ZM14.2935 14.4192H14.3C14.3773 14.4308 14.4587 14.4175 14.5329 14.387C14.6933 14.6172 14.8192 15.1395 14.6263 15.4654C14.5172 15.4675 14.4098 15.4483 14.3099 15.42L14.2299 15.396C14.3927 15.1436 14.3691 14.6979 14.2935 14.4192ZM14.7477 14.2437L14.9591 14.0372C15.1735 14.2246 15.4554 14.6436 15.3675 15.0413L15.1373 15.2524C15.0901 15.2979 15.0408 15.3321 14.9909 15.3625C15.1342 15.0075 14.9516 14.4602 14.7477 14.2437ZM15.9841 14.3617C15.9386 14.4233 15.901 14.4951 15.8771 14.5731L15.6209 14.8081C15.6722 14.4339 15.4205 13.9903 15.1906 13.8101L15.4629 13.5429L15.5173 13.5977C15.4263 13.8364 15.6041 14.3056 15.9841 14.3617ZM15.3045 12.5497C15.1698 12.8066 15.1835 13.1028 15.3422 13.3716L15.2365 13.4752C14.7771 13.4178 14.5959 12.733 14.5959 12.733C14.5866 12.7946 14.5812 12.8548 14.5822 12.916C14.3144 12.8168 14.1447 12.5784 14.1584 12.2525C14.2597 12.3089 14.3739 12.3489 14.4946 12.3698L14.5261 12.1697C14.2053 12.1136 14.0178 11.9132 13.9467 11.6762C13.9313 11.6748 13.9176 11.671 13.9029 11.67C13.9604 11.6748 14.0161 11.6793 14.0746 11.6793C14.2651 11.6793 14.4454 11.6498 14.615 11.5999C14.7481 11.7897 14.9851 11.9259 15.2221 11.9522C15.1852 12.1075 15.2033 12.3052 15.3045 12.5497ZM12.671 11.0215C12.8926 11.3246 13.2521 11.5493 13.6779 11.6372C13.7138 11.7973 13.8003 11.9724 13.9693 12.1136C13.8992 12.5846 14.1016 13.0244 14.6085 13.1414C14.6612 13.3812 14.8107 13.5631 15.0596 13.649L14.7077 14.056C14.5736 14.2119 14.3978 14.2615 14.2518 14.2437L12.6781 14.0645C12.7462 13.8897 12.5649 13.6876 12.067 13.7745L12.6857 12.0442L12.3081 11.2415L11.5926 11.852L11.5402 13.6667L11.2362 13.5169C10.8364 13.3446 10.7201 14.0669 11.0997 14.07L11.2505 14.0717C11.241 14.1459 11.2632 14.228 11.3217 14.253C11.2505 14.2831 11.2287 14.4175 11.3189 14.4654C11.2283 14.5081 11.216 14.6453 11.2892 14.7044C11.2095 14.8382 11.1975 15.1268 11.4735 15.2C11.6989 15.2592 11.8402 15.016 11.887 14.8748L14.3356 15.6334C14.6827 15.7329 14.929 15.6768 15.2166 15.4244L15.8559 14.8655C15.7755 15.2308 15.9072 15.5605 16.1856 15.6693C16.1856 15.6693 16.1452 15.9976 16.1579 16.1447H9.78395V12.1174C9.78395 11.7418 9.67553 11.367 9.54659 11.0215H12.671ZM12.2575 5.42606L13.9419 5.99861V8.63628L12.7011 7.98336L12.2575 5.42606ZM16.3504 5.11208C16.3504 4.46737 15.2676 3.89038 14.0729 3.89038C12.8775 3.89038 11.7947 4.46737 11.7947 5.11208L11.8193 5.2701L12.2951 8.00833L10.0367 9.32477C9.79661 9.46535 9.49597 9.85457 9.45766 10.2458H9.8698C9.93786 9.85491 10.2467 9.42122 10.8227 9.44824C11.3439 9.47561 11.6528 9.79266 11.9596 10.2458L12.0386 10.3652L12.1521 10.5434H8.83142C9.07528 11.0335 9.30752 11.5534 9.30752 12.1174V19.0221C9.30752 20.7989 10.6718 21.6448 12.1497 21.6448C13.2907 21.6448 13.4446 21.5928 14.0746 22.2228C14.7026 21.5928 14.8558 21.6448 15.9995 21.6448C17.4757 21.6448 18.8414 20.7989 18.8414 19.0221V12.1174C18.8414 11.5534 19.0726 11.0335 19.3165 10.5434H15.9934L16.1076 10.3652L16.187 10.2458C16.4924 9.79266 16.8023 9.47561 17.3238 9.44824C17.8981 9.42122 18.2083 9.85491 18.2764 10.2458H18.6875C18.6509 9.85457 18.3485 9.46535 18.1088 9.32477L15.8507 8.00833L16.3272 5.2701L16.3504 5.11208Z" fill="#1A1919"/>
<path d="M18.1683 13.624L18.1717 13.4222C17.552 13.4075 17.4104 12.6769 17.4104 12.6769C17.2288 13.2149 17.7018 13.6158 18.1683 13.624ZM17.3857 14.8614L17.3238 14.6706C16.7954 14.8057 16.5221 13.9684 16.5221 13.9684C16.3532 14.5765 16.9428 15.0075 17.3857 14.8614ZM17.7531 14.0854C17.1217 14.1853 16.8625 13.4509 16.8625 13.4509C16.7927 13.8508 17.0516 14.2564 17.4695 14.2992C17.3751 14.8214 17.8598 15.0885 18.2795 14.9028L18.2189 14.7209C17.8543 14.8433 17.5123 14.4825 17.7531 14.0854ZM17.3751 11.9898L17.381 11.7877C16.5478 11.616 16.6172 11.0424 16.6172 11.0424C16.4373 11.5825 16.9103 11.9813 17.3751 11.9898Z" fill="#1A1919"/>
<path fill-rule="evenodd" clip-rule="evenodd" d="M12.096 20.384L11.7973 20.9893H12.0213L12.3193 20.384H12.096Z" fill="#1A1919"/>
<path fill-rule="evenodd" clip-rule="evenodd" d="M12.5453 20.384L12.2487 20.9893H12.474L12.7693 20.384H12.5453Z" fill="#1A1919"/>
<path fill-rule="evenodd" clip-rule="evenodd" d="M14.3493 20.384L14.0527 20.9893H14.276L14.574 20.384H14.3493Z" fill="#1A1919"/>
<path fill-rule="evenodd" clip-rule="evenodd" d="M14.8013 20.384L14.5027 20.9893H14.728L15.0247 20.384H14.8013Z" fill="#1A1919"/>
<path fill-rule="evenodd" clip-rule="evenodd" d="M13.8987 20.384L13.6013 20.9893H13.8253L14.1227 20.384H13.8987Z" fill="#1A1919"/>
<path fill-rule="evenodd" clip-rule="evenodd" d="M16.534 20.9893H16.758L17.056 20.384H16.832L16.534 20.9893Z" fill="#1A1919"/>
<path fill-rule="evenodd" clip-rule="evenodd" d="M12.9973 20.384L12.7007 20.9893H12.9247L13.222 20.384H12.9973Z" fill="#1A1919"/>
<path fill-rule="evenodd" clip-rule="evenodd" d="M13.4473 20.384L13.1493 20.9893H13.3747L13.6727 20.384H13.4473Z" fill="#1A1919"/>
<path d="M12.4264 17.1325C12.386 17.1325 12.3498 17.1725 12.3498 17.2238C12.3498 17.2737 12.386 17.3148 12.4264 17.3148C12.4692 17.3148 12.5054 17.2737 12.5054 17.2238C12.5054 17.1725 12.4692 17.1325 12.4264 17.1325ZM12.3351 3.1523L12.6901 2.39985L13.3481 2.7494L14.0746 2.03218L14.8011 2.7494L15.4584 2.39985L15.8093 3.1523L16.2468 3.08526C16.1346 3.29561 16.0501 3.47825 15.9725 3.73613C15.4943 3.45704 14.7843 3.24225 14.0746 3.24225C13.3625 3.24225 12.6542 3.45704 12.1757 3.73613C12.096 3.47825 12.0129 3.29561 11.8997 3.08526L12.3351 3.1523ZM14.0746 3.48201C14.9991 3.48201 15.7392 3.78812 16.1483 4.11749C16.1483 4.11749 16.2707 3.38351 16.6849 2.73914L15.9397 2.82259L15.5504 1.99353L14.8011 2.38309L14.0746 1.66211L13.3481 2.38309L12.5974 1.99353L12.2075 2.82259L11.4629 2.73914C11.8778 3.38351 11.9989 4.11749 11.9989 4.11749C12.4069 3.78812 13.1491 3.48201 14.0746 3.48201Z" fill="#1A1919"/>
<path d="M14.8346 1.99867C14.9427 2.00756 15.0388 1.92582 15.048 1.81911C15.0586 1.71137 14.9006 1.42236 14.9006 1.42236C14.9006 1.42236 14.6639 1.67683 14.6564 1.78559C14.6461 1.8923 14.7275 1.98773 14.8346 1.99867ZM16.0553 2.44091C16.1514 2.49289 16.2687 2.45459 16.3207 2.35814C16.373 2.2634 16.3388 1.93642 16.3388 1.93642C16.3388 1.93642 16.0245 2.07836 15.9725 2.17481C15.9232 2.26989 15.9591 2.38858 16.0553 2.44091ZM13.3116 1.99867C13.4217 1.98773 13.5014 1.8923 13.4918 1.78559C13.4819 1.67683 13.2476 1.42236 13.2476 1.42236C13.2476 1.42236 13.0899 1.71137 13.1002 1.81911C13.1087 1.92582 13.2052 2.00756 13.3116 1.99867ZM12.0929 2.44091C12.1887 2.38858 12.2253 2.26989 12.174 2.17481C12.1234 2.07836 11.8084 1.93642 11.8084 1.93642C11.8084 1.93642 11.7748 2.2634 11.8275 2.35814C11.8778 2.45459 11.9968 2.49289 12.0929 2.44091ZM25.596 9.29674C25.676 9.47562 25.8357 10.0967 25.4547 10.5708C25.0207 9.70307 24.4235 8.95985 23.9402 8.63938C23.8346 8.57063 23.9987 8.4499 24.2963 8.41091C25.1961 8.24024 26.2503 8.62091 26.753 8.75464C26.5191 8.92941 26.3293 9.00808 26.0905 9.03749C26.4555 9.3436 26.7216 9.60251 26.9097 9.89118C26.556 9.97839 26.3573 9.75505 25.596 9.29674ZM26.7311 9.14933C26.9911 9.05699 27.1922 8.80902 27.2924 8.57952C26.6306 8.48444 24.8733 7.74636 23.4282 8.34729C23.9693 7.83357 24.4553 7.76722 24.5015 7.02845C24.7259 7.18989 25.1052 7.28086 25.3186 6.89575C25.1695 6.45591 24.7936 6.81195 24.7406 6.69122C24.667 6.5226 25.2153 6.74286 25.3323 6.17134C24.9061 6.02496 24.7785 6.37314 24.7026 6.29242C24.6322 6.21547 24.9731 6.06874 24.7221 5.60803C24.2785 5.86763 24.5094 6.1604 24.4157 6.19323C24.3021 6.23804 24.3914 5.88097 23.9012 5.89704C23.853 6.42444 24.362 6.44052 24.2785 6.52465C24.1776 6.62658 24.0446 6.22162 23.6741 6.42684C23.6806 6.85265 24.0251 7.08625 24.3811 6.9857C24.323 7.79458 23.5818 7.64375 23.0287 8.55456C24.1988 9.15446 24.7283 10.2004 25.4482 10.9237C25.6859 10.7551 26.0922 10.0051 26.0922 10.0051C26.8714 10.6084 27.4193 10.0075 27.4193 10.0075C27.1511 9.73282 27.1416 9.52385 26.7311 9.14933ZM13.8567 23.4979L13.3495 23.479L13.2917 23.6819L13.3553 23.6853C13.3765 23.6853 13.3765 23.6456 13.395 23.6241C13.4049 23.6162 13.4969 23.6011 13.5694 23.6087L13.7818 23.6247C13.657 23.885 13.3297 24.1299 13.3338 24.3026C13.3386 24.3946 13.4319 24.4128 13.4877 24.4104C13.59 24.4066 13.6218 24.3348 13.6484 24.224C13.7103 23.9678 13.8342 23.7728 13.9238 23.479L13.8608 23.4811L13.8567 23.4979ZM14.2035 23.8005L14.2111 23.6442H14.6516L14.6283 23.4698C14.5079 23.4739 14.3311 23.5132 14.169 23.5143L14.1382 23.8549C14.3424 23.846 14.4755 23.935 14.4755 24.1487C14.4755 24.2284 14.4231 24.3772 14.3311 24.3885C14.3099 24.3916 14.2819 24.3844 14.2685 24.3738C14.2244 24.3406 14.2822 24.304 14.2822 24.2493C14.2822 24.1781 14.2097 24.1532 14.1615 24.1621C14.0859 24.1668 14.0589 24.2161 14.0589 24.2763C14.0589 24.4018 14.2453 24.4367 14.325 24.4367C14.5059 24.4367 14.7145 24.3362 14.7145 24.1313C14.7145 23.8618 14.4129 23.8064 14.2035 23.8005ZM15.2859 23.9394C15.1182 23.9394 15.0941 23.6949 15.0941 23.5762C15.0941 23.5427 15.1262 23.4955 15.1639 23.4955C15.3166 23.4955 15.3586 23.8282 15.3711 23.922C15.3462 23.9309 15.3166 23.9394 15.2859 23.9394ZM15.1789 23.4493C15.01 23.4493 14.8715 23.5669 14.8715 23.7277C14.8715 23.9815 15.1628 24.0649 15.3787 23.9688C15.4051 24.1658 15.3623 24.3071 15.2826 24.3119C15.2147 24.3119 15.2245 24.264 15.2147 24.2233C15.1968 24.1467 15.1321 24.1262 15.0656 24.1467C14.995 24.1658 14.9844 24.224 14.9965 24.2681C15.0279 24.3676 15.1595 24.3697 15.2227 24.3625C15.4997 24.3331 15.6159 24.1405 15.6159 23.9268C15.6159 23.6791 15.4643 23.4493 15.1789 23.4493ZM12.9942 23.3973C12.9706 23.4264 12.8618 23.5618 12.6282 23.7362L12.6477 23.7701C12.6733 23.7564 12.7147 23.7373 12.7852 23.6949L12.6477 24.1761C12.6398 24.2021 12.608 24.2045 12.5926 24.2021L12.5109 24.1905L12.4955 24.2469L12.9429 24.3269L12.9565 24.2701L12.8792 24.2534C12.8563 24.2469 12.8423 24.2305 12.8461 24.2045L13.0499 23.4059L12.9942 23.3973Z" fill="#1A1919"/>
<path d="M16.3809 23.9654L15.9841 22.6753C16.8296 22.5005 17.4179 22.321 17.867 22.1475V22.9523L18.564 23.2331C17.9751 23.5016 17.2445 23.7681 16.3809 23.9654ZM14.0746 24.7202C13.2863 24.7202 12.5164 24.6022 11.8587 24.4408L12.2773 23.0874C12.5547 23.1521 13.249 23.2372 14.0746 23.2372C14.9006 23.2372 15.5922 23.1521 15.8709 23.0874L16.2909 24.4408C15.6301 24.6022 14.8606 24.7202 14.0746 24.7202ZM9.58285 23.2331L10.2806 22.9523V22.1475C10.7297 22.321 11.3179 22.5005 12.1634 22.6753L11.767 23.9654C10.9055 23.7681 10.1728 23.5016 9.58285 23.2331ZM18.0828 22.7851V21.7977C17.3197 22.1475 16.3484 22.4311 15.0997 22.5433L15.0429 22.8962C15.1489 22.9113 15.2837 22.9243 15.4629 22.9359C15.0001 22.9992 14.4023 23.03 14.0746 23.03C13.7463 23.03 13.1491 22.9992 12.6857 22.9359C12.8646 22.9243 12.9983 22.9113 13.1043 22.8962L13.0479 22.5433C11.7988 22.4311 10.8264 22.1475 10.0654 21.7977V22.7851L9.03014 23.2099C9.79662 23.6087 10.679 23.9339 11.6989 24.1966L11.5782 24.6101C12.1624 24.7811 13.0958 24.9566 14.0746 24.9566C15.0532 24.9566 15.9859 24.7811 16.57 24.6101L16.4496 24.1966C17.4682 23.9339 18.3526 23.6087 19.1191 23.2099L18.0828 22.7851ZM1.23682 9.89118C1.42596 9.60251 1.69069 9.3436 2.05802 9.03886C1.81758 9.00808 1.62912 8.92941 1.39347 8.75464C1.89624 8.62091 2.95343 8.24024 3.85329 8.41091C4.1488 8.4499 4.31571 8.57063 4.20729 8.63869C3.72367 8.95985 3.12615 9.70307 2.69179 10.5704C2.3118 10.0967 2.47255 9.47562 2.55121 9.29674C1.79124 9.75539 1.59321 9.97839 1.23682 9.89118ZM2.05528 10.0051C2.05528 10.0051 2.46229 10.7551 2.69863 10.9234C3.41995 10.2004 3.94974 9.15446 5.11878 8.55455C4.56538 7.64375 3.82285 7.79663 3.76779 6.9857C4.12315 7.08625 4.46688 6.85163 4.47406 6.42683C4.10229 6.22265 3.96958 6.62863 3.86937 6.52465C3.78626 6.43915 4.29519 6.42444 4.24696 5.89773C3.75616 5.88233 3.84611 6.23804 3.73085 6.19323C3.63884 6.15971 3.86937 5.86729 3.42406 5.60803C3.17404 6.07079 3.51606 6.21512 3.44526 6.29242C3.36967 6.37314 3.24107 6.02496 2.81526 6.17134C2.93086 6.74286 3.48151 6.5226 3.40661 6.69122C3.35428 6.81195 2.9784 6.45591 2.83065 6.89575C3.04236 7.28086 3.42234 7.18989 3.645 7.02913C3.69288 7.7703 4.17753 7.8322 4.71998 8.34729C3.27528 7.74636 1.51728 8.48376 0.853415 8.58055C0.95568 8.80902 1.1561 9.05699 1.41638 9.14728C1.0063 9.52521 0.996722 9.73316 0.728577 10.0075C0.728577 10.0075 1.27513 10.6084 2.05528 10.0051ZM13.4412 9.45407V9.88913C13.591 9.70888 13.8804 9.74445 13.8804 9.74445V10.37C13.8804 10.37 13.8704 10.6792 13.761 10.8116H14.3879C14.2788 10.6792 14.2686 10.37 14.2686 10.37V9.74445C14.2686 9.74445 14.5576 9.70888 14.7077 9.88913V9.45407H13.4412Z" fill="#1A1919"/>
</svg>
