<svg width="25" height="23" viewBox="0 0 25 23" fill="none" xmlns="http://www.w3.org/2000/svg">
<g opacity="0.9">
<path opacity="0.9" fill-rule="evenodd" clip-rule="evenodd" d="M11.0527 11.1653H16.7453V21.4366H11.0527V11.1653Z" fill="#FF5F00"/>
<path opacity="0.9" fill-rule="evenodd" clip-rule="evenodd" d="M11.4241 16.3009C11.4241 14.2177 12.3935 12.3614 13.8992 11.1651C12.806 10.2988 11.4035 9.76257 9.8978 9.76257C6.30892 9.76257 3.4007 12.6914 3.4007 16.3009C3.4007 19.9104 6.30892 22.8393 9.8978 22.8393C11.4241 22.8393 12.806 22.303 13.8992 21.4367C12.3935 20.2404 11.4241 18.3841 11.4241 16.3009Z" fill="#EB001B"/>
<path opacity="0.9" fill-rule="evenodd" clip-rule="evenodd" d="M24.4183 16.3009C24.4183 19.9104 21.5101 22.8393 17.9212 22.8393C16.3949 22.8393 15.013 22.303 13.9198 21.4367C15.4255 20.2404 16.3949 18.3841 16.3949 16.3009C16.3949 14.2177 15.4255 12.3614 13.8992 11.1651C15.013 10.2988 16.4155 9.76257 17.9212 9.76257C21.5101 9.76257 24.4183 12.6914 24.4183 16.3009Z" fill="#F79E1B"/>
<path opacity="0.9" d="M12.2491 0.8729L10.6403 8.36003H8.70151L10.3309 0.8729H12.2491ZM20.4169 5.69932L21.4276 2.89422L22.0051 5.71994H20.4169V5.69932ZM22.5826 8.36003H24.3771L22.8095 0.8729H21.1594C20.7882 0.8729 20.4788 1.07916 20.3344 1.42979L17.4262 8.36003H19.4681L19.86 7.24625H22.3351L22.5826 8.36003ZM17.5293 5.90557C17.5499 3.92551 14.7861 3.82238 14.8067 2.93547C14.8067 2.66734 15.0542 2.37858 15.6317 2.3167C15.9205 2.27545 16.6837 2.25482 17.5499 2.64671L17.88 1.07916C17.4056 0.893526 16.8074 0.749146 16.0649 0.749146C14.1467 0.749146 12.806 1.75981 12.7854 3.22423C12.7648 4.29677 13.7548 4.91554 14.4767 5.26618C15.2192 5.63744 15.4874 5.88495 15.4874 6.19433C15.4874 6.70998 14.8686 6.91623 14.3323 6.93686C13.3629 6.95749 12.7854 6.66873 12.3316 6.46247L11.981 8.11253C12.4348 8.31878 13.2598 8.50442 14.1261 8.50442C16.1886 8.48379 17.5087 7.47313 17.5293 5.90557ZM9.50591 0.8729L6.35018 8.36003H4.30823L2.74067 2.37858C2.65817 2.00731 2.57567 1.88356 2.30753 1.71855C1.83314 1.47105 1.06999 1.22354 0.389343 1.07916L0.430595 0.8729H3.73071C4.16385 0.8729 4.51449 1.16166 4.61762 1.63605L5.44264 5.96745L7.46396 0.8729H9.50591Z" fill="#2A2A6C"/>
</g>
</svg>
