<svg width="99" height="33" viewBox="0 0 99 33" fill="none" xmlns="http://www.w3.org/2000/svg">
<path fill-rule="evenodd" clip-rule="evenodd" d="M92.0187 0.97784H5.9894C0.854773 0.97784 0 2.7109 0 6.83243V27.1822C0 31.3006 1.75865 33 5.98355 33H92.0191C96.2474 33 98.0677 31.2982 98.0677 27.1769V6.83243C98.0677 2.7109 96.2464 0.97784 92.0187 0.97784Z" fill="black"/>
<path d="M13.9695 15.1732L10.5629 15.6405V18.1734H13.9695V15.1732ZM13.9664 21.8209V18.5981H10.5635V21.354L13.9664 21.8209ZM18.6916 14.5332L14.4003 15.1483V18.1734H18.6916V14.5332ZM14.3997 18.5977V21.8461L18.6909 22.4612V18.5977H14.3997ZM25.6573 26.0023L22.6107 27.0845L7.25934 24.0831V13.2073L22.6066 10.2062L25.6573 11.3128V26.0023Z" fill="white"/>
<path d="M11.9982 11.6048C11.8125 11.6377 11.6326 11.6694 11.4463 11.7025C11.4463 11.6762 11.4463 11.656 11.4463 11.6359C11.4463 10.7553 11.4441 9.87465 11.4472 8.99404C11.4487 8.59122 11.497 8.19367 11.6335 7.81044C11.8336 7.24939 12.2131 6.84441 12.7574 6.58154C13.0866 6.42256 13.4351 6.31972 13.7906 6.23702C14.0023 6.18777 14.2141 6.13785 14.4281 6.09971C14.6196 6.06561 14.8138 6.04451 15.0074 6.02285C15.1947 6.00204 15.3828 6.00571 15.5701 6.02351C15.9993 6.0641 16.3881 6.19662 16.6953 6.50648C16.9091 6.72197 17.0422 6.98248 17.1314 7.26616C17.1948 7.4679 17.234 7.67444 17.2599 7.884C17.292 8.14423 17.3014 8.40549 17.302 8.66713C17.3033 9.27659 17.3024 9.88614 17.3024 10.4956C17.3024 10.5179 17.3024 10.5402 17.3024 10.5702C17.1197 10.6029 16.9386 10.6352 16.7508 10.6687C16.7508 10.6419 16.7508 10.6198 16.7508 10.5978C16.7505 9.89292 16.7522 9.18805 16.7492 8.48319C16.748 8.19913 16.7267 7.9164 16.6487 7.64054C16.573 7.37277 16.45 7.13223 16.2324 6.94509C16.0601 6.79685 15.857 6.70973 15.6347 6.66377C15.3908 6.61338 15.1443 6.61008 14.8971 6.63721C14.3604 6.69626 13.843 6.83132 13.3401 7.02006C13.0832 7.11641 12.8433 7.24365 12.6325 7.41864C12.3455 7.65674 12.168 7.95944 12.0786 8.31375C12.0235 8.53235 11.9987 8.75463 11.9985 8.97925C11.9976 9.8318 11.9982 10.6843 11.9982 11.537C11.9982 11.5588 11.9982 11.5808 11.9982 11.6048Z" fill="white"/>
<path d="M19.7985 10.079C19.6159 10.1114 19.4378 10.143 19.2521 10.176C19.251 10.153 19.2494 10.1337 19.2494 10.1143C19.2492 9.8937 19.2522 9.67303 19.2482 9.45245C19.2449 9.26757 19.2378 9.0825 19.2241 8.89809C19.2143 8.76614 19.1859 8.63617 19.1332 8.51279C19.0436 8.30286 18.8781 8.18306 18.6554 8.1322C18.4742 8.09085 18.2903 8.09142 18.1064 8.10366C18.0187 8.10941 17.9313 8.12174 17.8438 8.13079C17.8347 8.13182 17.8255 8.13097 17.8204 8.13097C17.7928 7.95184 17.7659 7.77722 17.738 7.5963C17.816 7.585 17.8943 7.56889 17.9734 7.56305C18.1624 7.54911 18.3518 7.5316 18.541 7.53122C18.7482 7.53084 18.9531 7.55881 19.1445 7.64631C19.3807 7.75406 19.5261 7.93912 19.6172 8.17081C19.6951 8.36897 19.7322 8.5758 19.7564 8.78564C19.8049 9.20456 19.8013 9.62509 19.8011 10.0456C19.8011 10.0548 19.7997 10.064 19.7985 10.079Z" fill="white"/>
<path d="M16.1126 7.97062C16.1587 8.06546 16.1733 8.37692 16.1604 8.52602C16.0356 8.58573 15.9096 8.64327 15.786 8.70581C15.6426 8.77843 15.5103 8.86705 15.3976 8.98158C15.2369 9.14451 15.1519 9.34343 15.1059 9.5609C15.0588 9.78336 15.0514 10.0091 15.0513 10.2352C15.0513 10.48 15.0524 10.7249 15.0528 10.9698C15.0528 10.9826 15.0513 10.9954 15.0501 11.0144C14.87 11.0463 14.6909 11.0779 14.5031 11.1111C14.5031 11.0814 14.503 11.0614 14.5031 11.0415C14.5046 10.6956 14.4989 10.3497 14.5098 10.0041C14.5204 9.66591 14.5693 9.33232 14.7004 9.01464C14.8342 8.69018 15.0589 8.44511 15.3698 8.27285C15.6002 8.14514 15.8477 8.05736 16.0971 7.97354C16.1021 7.97194 16.1076 7.97156 16.1126 7.97062Z" fill="white"/>
<path d="M31.0346 14.3361V13.4905C31.4633 13.7872 31.9503 13.9355 32.4955 13.9355C32.8531 13.9355 33.1379 13.8546 33.3496 13.6927C33.5613 13.5308 33.6673 13.3138 33.6673 13.0418C33.6673 12.4485 33.2374 12.1518 32.3775 12.1518H31.7499V11.4619H32.3395C32.7048 11.4619 32.9876 11.3878 33.188 11.2395C33.3882 11.0911 33.4884 10.8822 33.4884 10.6127C33.4884 10.3804 33.4035 10.1943 33.2337 10.0547C33.0636 9.91498 32.8304 9.8451 32.5336 9.8451C32.0821 9.8451 31.6421 9.97856 31.2134 10.2456V9.45942C31.6344 9.24431 32.1201 9.13675 32.6706 9.13675C33.2184 9.13675 33.6495 9.25853 33.964 9.50209C34.2785 9.74555 34.4358 10.0651 34.4358 10.4607C34.4358 11.1456 34.0844 11.5782 33.382 11.7587V11.7735C33.7573 11.8156 34.056 11.9515 34.2778 12.1815C34.4997 12.4113 34.6109 12.6957 34.6109 13.0344C34.6109 13.5215 34.4244 13.9096 34.0515 14.1988C33.6787 14.4881 33.1689 14.6327 32.5222 14.6327C31.8805 14.6327 31.3847 14.5339 31.0346 14.3361Z" fill="white"/>
<path d="M37.6727 12.6784L36.8548 12.7896C36.601 12.8217 36.4102 12.8817 36.2822 12.9695C36.1541 13.0573 36.09 13.2112 36.09 13.4312C36.09 13.592 36.1491 13.7236 36.2669 13.8261C36.3849 13.9288 36.5428 13.9801 36.7406 13.9801C37.0094 13.9801 37.232 13.888 37.4083 13.7038C37.5845 13.5196 37.6727 13.2879 37.6727 13.0084V12.6784ZM38.5248 14.5438H37.6689V13.9503H37.6537C37.3848 14.4053 36.9904 14.6327 36.4705 14.6327C36.0875 14.6327 35.7876 14.5314 35.5707 14.3287C35.3539 14.126 35.2455 13.8577 35.2455 13.5239C35.2455 12.807 35.6691 12.3892 36.5161 12.2704L37.6727 12.1109C37.6727 11.5695 37.409 11.2988 36.8814 11.2988C36.4173 11.2988 35.9988 11.4546 35.626 11.766V11.0132C36.0368 10.7759 36.5111 10.6572 37.0488 10.6572C38.0328 10.6572 38.5248 11.1295 38.5248 12.0738V14.5438Z" fill="white"/>
<path d="M41.9141 11.4323H40.4647V14.5438H39.5782V10.7462H41.9141V11.4323Z" fill="white"/>
<path d="M43.5076 12.4855V12.9565C43.5076 13.2334 43.5983 13.4683 43.7796 13.6611C43.961 13.854 44.1911 13.9503 44.4702 13.9503C44.7973 13.9503 45.0541 13.8261 45.2405 13.5777C45.427 13.3292 45.5202 12.9824 45.5202 12.5374C45.5202 12.1642 45.4333 11.8717 45.2596 11.6604C45.0858 11.449 44.8505 11.3434 44.5538 11.3434C44.2393 11.3434 43.9864 11.4521 43.7948 11.6696C43.6033 11.8873 43.5076 12.1592 43.5076 12.4855ZM43.5304 13.9838H43.5153V16.2904H42.6326V10.7462H43.5153V11.4138H43.5304C43.8323 10.9095 44.2735 10.6572 44.8544 10.6572C45.3489 10.6572 45.7345 10.8266 46.0109 11.1654C46.2874 11.504 46.4256 11.9589 46.4256 12.5301C46.4256 13.163 46.2697 13.6698 45.9577 14.0506C45.6457 14.4312 45.2195 14.6216 44.6794 14.6216C44.1822 14.6216 43.7992 14.409 43.5304 13.9838Z" fill="white"/>
<path d="M50.6783 10.7462L48.9207 15.1519C48.5554 15.9381 48.0431 16.3312 47.3836 16.3312C47.1985 16.3312 47.0437 16.3151 46.9195 16.283V15.5672C47.059 15.6118 47.1858 15.634 47.3 15.634C47.6296 15.634 47.8757 15.4758 48.0379 15.1593L48.3005 14.5363L46.7521 10.7462H47.7298L48.6581 13.5054C48.6683 13.5399 48.6911 13.6314 48.7265 13.7797H48.7457C48.7582 13.7229 48.7811 13.6338 48.8142 13.5127L49.7881 10.7462H50.6783Z" fill="white"/>
<path d="M50.9708 14.4399V13.7316C51.3004 13.9095 51.6859 13.9986 52.1273 13.9986C52.7486 13.9986 53.0593 13.8156 53.0593 13.4497C53.0593 13.0838 52.6928 12.9008 51.9598 12.9008H51.5871V12.2927H51.9447C52.5964 12.2927 52.9223 12.1183 52.9223 11.7698C52.9223 11.6239 52.8531 11.5078 52.7151 11.4211C52.5767 11.3347 52.3884 11.2913 52.1501 11.2913C51.7874 11.2913 51.4247 11.3754 51.062 11.5436V10.8686C51.5007 10.7252 51.904 10.6535 52.2718 10.6535C53.304 10.6535 53.8202 10.9947 53.8202 11.677C53.8202 11.8971 53.746 12.0862 53.5976 12.2445C53.4492 12.4027 53.2406 12.5077 52.9718 12.5597V12.5781C53.2685 12.6005 53.507 12.6945 53.6869 12.86C53.867 13.0257 53.9571 13.2358 53.9571 13.4905C53.9571 13.8366 53.8023 14.1123 53.4929 14.3175C53.1835 14.5227 52.7574 14.6253 52.2147 14.6253C51.672 14.6253 51.2573 14.5635 50.9708 14.4399Z" fill="white"/>
<path d="M58.3508 14.5438H57.5518V11.7587C57.5011 11.8576 57.4238 11.9948 57.3198 12.1703L55.68 14.5438H54.8127V10.7462H55.623V13.4756C55.6509 13.4114 55.7106 13.3002 55.8019 13.142L57.4644 10.7462H58.3508V14.5438Z" fill="white"/>
<path d="M62.1355 11.4323H61.0246V14.5438H60.1382V11.4323H59.0197V10.7462H62.1355V11.4323Z" fill="white"/>
<path d="M65.129 12.2704C65.1265 11.9614 65.0516 11.721 64.9047 11.5491C64.7574 11.3773 64.5546 11.2914 64.2959 11.2914C64.0423 11.2914 63.8273 11.3817 63.651 11.5621C63.4747 11.7426 63.3663 11.9787 63.3258 12.2704H65.129ZM65.9812 12.8786H63.3258C63.3359 13.2297 63.4469 13.5004 63.6587 13.6908C63.8705 13.8812 64.1614 13.9763 64.5317 13.9763C64.9477 13.9763 65.3294 13.8552 65.677 13.6129V14.3064C65.3218 14.524 64.8526 14.6327 64.2693 14.6327C63.6961 14.6327 63.2465 14.4603 62.9206 14.1154C62.5946 13.7705 62.4317 13.2853 62.4317 12.6598C62.4317 12.0689 62.6111 11.5875 62.9701 11.2154C63.3289 10.8433 63.7746 10.6572 64.3073 10.6572C64.84 10.6572 65.252 10.8241 65.5437 11.1579C65.8354 11.4916 65.9812 11.9553 65.9812 12.5486V12.8786Z" fill="white"/>
<path d="M72.3868 14.5438H71.5003V12.8823H69.8036V14.5438H68.9171V10.7462H69.8036V12.237H71.5003V10.7462H72.3868V14.5438Z" fill="white"/>
<path d="M75.6504 12.6784L74.8325 12.7896C74.5788 12.8217 74.3879 12.8817 74.2599 12.9695C74.1318 13.0573 74.0678 13.2112 74.0678 13.4312C74.0678 13.592 74.1267 13.7236 74.2447 13.8261C74.3626 13.9288 74.5204 13.9801 74.7183 13.9801C74.9871 13.9801 75.2097 13.888 75.3859 13.7038C75.5622 13.5196 75.6504 13.2879 75.6504 13.0084V12.6784ZM76.5026 14.5438H75.6465V13.9503H75.6314C75.3625 14.4053 74.9681 14.6327 74.4482 14.6327C74.0652 14.6327 73.7654 14.5314 73.5485 14.3287C73.3315 14.126 73.2231 13.8577 73.2231 13.5239C73.2231 12.807 73.6467 12.3892 74.4939 12.2704L75.6504 12.1109C75.6504 11.5695 75.3866 11.2988 74.8591 11.2988C74.3949 11.2988 73.9765 11.4546 73.6036 11.766V11.0132C74.0145 10.7759 74.4887 10.6572 75.0264 10.6572C76.0105 10.6572 76.5026 11.1295 76.5026 12.0738V14.5438Z" fill="white"/>
<path d="M40.0899 18.14L38.2055 24.8423H36.9158L35.6068 20.1543C35.5524 19.955 35.5189 19.7368 35.5061 19.5H35.4869C35.4708 19.7213 35.4326 19.9363 35.3719 20.145L34.0581 24.8423H32.7395L30.8168 18.14H32.0682L33.3149 23.0475C33.366 23.2531 33.398 23.4682 33.4108 23.6925H33.4348C33.4476 23.5336 33.4924 23.3186 33.569 23.0475L34.9787 18.14H36.1535L37.4576 23.0849C37.5022 23.2531 37.5359 23.4526 37.5583 23.6832H37.5774C37.587 23.5274 37.6237 23.3217 37.6877 23.0662L38.9104 18.14H40.0899Z" fill="white"/>
<path d="M41.8746 24.8423H40.7622V20.0562H41.8746V24.8423ZM41.3232 19.0514C41.1411 19.0514 40.9851 18.9937 40.8557 18.8785C40.7263 18.7632 40.6616 18.6167 40.6616 18.4391C40.6616 18.2615 40.7263 18.1135 40.8557 17.995C40.9851 17.8766 41.1411 17.8174 41.3232 17.8174C41.5117 17.8174 41.6716 17.8766 41.8026 17.995C41.9337 18.1135 41.9992 18.2615 41.9992 18.4391C41.9992 18.6073 41.9337 18.7515 41.8026 18.8714C41.6716 18.9914 41.5117 19.0514 41.3232 19.0514Z" fill="white"/>
<path d="M47.5431 24.8423H46.4308V22.1455C46.4308 21.2512 46.1063 20.804 45.4574 20.804C45.1186 20.804 44.8388 20.9279 44.6183 21.1757C44.3977 21.4234 44.2875 21.7358 44.2875 22.1127V24.8423H43.1703V20.0562H44.2875V20.8507H44.3066C44.6742 20.2463 45.2048 19.944 45.8985 19.944C46.4323 19.944 46.8399 20.1131 47.1212 20.4512C47.4024 20.7893 47.5431 21.2777 47.5431 21.9164V24.8423Z" fill="white"/>
<path d="M52.1088 22.6549V22.0286C52.1088 21.6891 51.9953 21.4008 51.7684 21.164C51.5414 20.9271 51.2521 20.8087 50.9005 20.8087C50.4849 20.8087 50.1581 20.9599 49.92 21.2621C49.6818 21.5644 49.5628 21.9835 49.5628 22.5194C49.5628 23.0055 49.677 23.3895 49.9055 23.6715C50.1341 23.9535 50.4417 24.0945 50.8286 24.0945C51.209 24.0945 51.5174 23.9582 51.7539 23.6855C51.9905 23.4129 52.1088 23.0694 52.1088 22.6549ZM53.2068 24.8423H52.0944V24.029H52.0753C51.7171 24.6459 51.1657 24.9545 50.421 24.9545C49.8168 24.9545 49.3334 24.7403 48.9706 24.3118C48.6078 23.8834 48.4264 23.2999 48.4264 22.5615C48.4264 21.7701 48.627 21.1359 49.0281 20.6592C49.4293 20.1824 49.9639 19.944 50.632 19.944C51.2937 19.944 51.7747 20.2028 52.0753 20.7199H52.0944V17.7566H53.2068V24.8423Z" fill="white"/>
<path d="M56.7321 20.8087C56.2973 20.8087 55.9537 20.9568 55.7012 21.2527C55.4487 21.5488 55.3225 21.957 55.3225 22.4773C55.3225 22.979 55.4503 23.3739 55.706 23.6622C55.9617 23.9504 56.3037 24.0945 56.7321 24.0945C57.17 24.0945 57.5064 23.9526 57.7414 23.6692C57.9764 23.3856 58.0938 22.9821 58.0938 22.4586C58.0938 21.9321 57.9764 21.5255 57.7414 21.2388C57.5064 20.9521 57.17 20.8087 56.7321 20.8087ZM56.6794 24.9545C55.9218 24.9545 55.3168 24.7309 54.8646 24.2838C54.4122 23.8367 54.186 23.2438 54.186 22.5053C54.186 21.7015 54.4218 21.0736 54.8934 20.6218C55.3648 20.17 56.0001 19.944 56.7992 19.944C57.5664 19.944 58.1641 20.1637 58.5925 20.6031C59.0207 21.0424 59.2349 21.6517 59.2349 22.4306C59.2349 23.194 59.0039 23.8054 58.5421 24.2651C58.0801 24.7247 57.4593 24.9545 56.6794 24.9545Z" fill="white"/>
<path d="M66.8117 20.0562L65.3637 24.8423H64.1985L63.3068 21.5986C63.2715 21.474 63.2492 21.3338 63.2395 21.178H63.2204C63.214 21.284 63.1852 21.421 63.1341 21.5892L62.1655 24.8423H61.0245L59.5812 20.0562H60.7319L61.6238 23.5055C61.6526 23.6084 61.6717 23.7455 61.6813 23.9168H61.7149C61.7245 23.7859 61.75 23.6458 61.7916 23.4962L62.7841 20.0562H63.8294L64.7116 23.5196C64.7404 23.6286 64.761 23.7658 64.7739 23.9309H64.8074C64.8138 23.8156 64.8378 23.6785 64.8794 23.5196L65.752 20.0562H66.8117Z" fill="white"/>
<path d="M69.8299 24.5759V23.4308C69.9354 23.5242 70.0608 23.6084 70.2063 23.6832C70.3517 23.758 70.5059 23.8211 70.669 23.8724C70.8319 23.9238 70.995 23.9636 71.158 23.9916C71.3211 24.0197 71.4714 24.0336 71.6088 24.0336C72.0882 24.0336 72.4455 23.9558 72.6804 23.8C72.9153 23.6443 73.0328 23.4183 73.0328 23.1223C73.0328 22.9633 72.9936 22.8255 72.9153 22.7086C72.837 22.5918 72.7275 22.4851 72.5868 22.3886C72.4461 22.2919 72.2807 22.1991 72.0907 22.1103C71.9004 22.0216 71.6967 21.9289 71.4794 21.8323C71.2459 21.7108 71.0287 21.5877 70.8272 21.463C70.6258 21.3385 70.4508 21.2006 70.3022 21.0495C70.1536 20.8983 70.0369 20.7277 69.9521 20.5377C69.8674 20.3476 69.8251 20.1248 69.8251 19.8693C69.8251 19.5546 69.8977 19.2812 70.0432 19.049C70.1887 18.817 70.3805 18.6253 70.6186 18.4741C70.8567 18.3231 71.1276 18.2109 71.4313 18.1376C71.7349 18.0644 72.0451 18.0278 72.3615 18.0278C73.0807 18.0278 73.605 18.1073 73.9343 18.2662V19.3645C73.5442 19.0904 73.0424 18.9531 72.4287 18.9531C72.2592 18.9531 72.0907 18.9688 71.9228 18.9999C71.7549 19.0311 71.6047 19.0825 71.472 19.1541C71.3394 19.2259 71.2316 19.3178 71.1485 19.4299C71.0653 19.5421 71.0238 19.6776 71.0238 19.8366C71.0238 19.9861 71.0557 20.1154 71.1197 20.2245C71.1836 20.3336 71.2772 20.4333 71.4002 20.5236C71.5232 20.6141 71.6735 20.702 71.8509 20.7876C72.0283 20.8734 72.2336 20.9661 72.467 21.0658C72.7068 21.1873 72.9328 21.3152 73.1455 21.449C73.358 21.583 73.545 21.7311 73.7064 21.8931C73.8678 22.0551 73.9957 22.235 74.09 22.4329C74.1843 22.6308 74.2315 22.8559 74.2315 23.1083C74.2315 23.4479 74.1611 23.7346 74.0205 23.9683C73.8798 24.2019 73.6904 24.3921 73.4523 24.5384C73.2142 24.6849 72.9401 24.7909 72.6301 24.8563C72.32 24.9218 71.9923 24.9545 71.6471 24.9545C71.532 24.9545 71.3906 24.9458 71.2228 24.9288C71.0549 24.9116 70.8831 24.8867 70.7073 24.854C70.5316 24.8213 70.3653 24.7816 70.2086 24.7347C70.052 24.688 69.9258 24.6351 69.8299 24.5759Z" fill="white"/>
<path d="M77.5169 24.7908C77.2995 24.8967 77.0135 24.9497 76.6586 24.9497C75.706 24.9497 75.2298 24.5041 75.2298 23.613V20.9068H74.4099V20.0562H75.2298V18.9485L76.3422 18.64V20.0562H77.5169V20.9068H76.3422V23.2998C76.3422 23.5834 76.3949 23.7859 76.5003 23.9074C76.6059 24.029 76.7816 24.0897 77.0278 24.0897C77.2163 24.0897 77.3794 24.0368 77.5169 23.9308V24.7908Z" fill="white"/>
<path d="M80.4907 20.8087C80.0559 20.8087 79.7122 20.9568 79.4598 21.2527C79.2073 21.5488 79.081 21.957 79.081 22.4773C79.081 22.979 79.209 23.3739 79.4646 23.6622C79.7203 23.9504 80.0624 24.0945 80.4907 24.0945C80.9286 24.0945 81.2651 23.9526 81.5 23.6692C81.735 23.3856 81.8525 22.9821 81.8525 22.4586C81.8525 21.9321 81.735 21.5255 81.5 21.2388C81.2651 20.9521 80.9286 20.8087 80.4907 20.8087ZM80.438 24.9545C79.6804 24.9545 79.0754 24.7309 78.6232 24.2838C78.1708 23.8367 77.9447 23.2438 77.9447 22.5053C77.9447 21.7015 78.1804 21.0736 78.652 20.6218C79.1235 20.17 79.7587 19.944 80.5578 19.944C81.325 19.944 81.9227 20.1637 82.3511 20.6031C82.7794 21.0424 82.9935 21.6517 82.9935 22.4306C82.9935 23.194 82.7626 23.8054 82.3008 24.2651C81.8387 24.7247 81.2179 24.9545 80.438 24.9545Z" fill="white"/>
<path d="M86.8161 21.0892C86.6818 20.9863 86.4884 20.9349 86.236 20.9349C85.9067 20.9349 85.6319 21.0798 85.4113 21.3696C85.1908 21.6594 85.0805 22.0535 85.0805 22.552V24.8423H83.968V20.0562H85.0805V21.0424H85.0996C85.2082 20.7059 85.3753 20.4434 85.6007 20.2548C85.8261 20.0664 86.0777 19.9721 86.3558 19.9721C86.5572 19.9721 86.7106 20.0018 86.8161 20.0609V21.0892Z" fill="white"/>
<path d="M90.4421 21.9772C90.4389 21.5877 90.3446 21.2847 90.1591 21.0681C89.9738 20.8516 89.7181 20.7433 89.3921 20.7433C89.0723 20.7433 88.8015 20.8571 88.5793 21.0845C88.3571 21.312 88.2205 21.6096 88.1694 21.9772H90.4421ZM91.5161 22.7437H88.1694C88.1821 23.1862 88.322 23.5274 88.589 23.7673C88.8558 24.0073 89.2225 24.1272 89.6893 24.1272C90.2135 24.1272 90.6945 23.9745 91.1326 23.6692V24.5432C90.685 24.8173 90.0936 24.9545 89.3585 24.9545C88.636 24.9545 88.0695 24.7371 87.6587 24.3024C87.248 23.8678 87.0426 23.2563 87.0426 22.468C87.0426 21.7233 87.2687 21.1165 87.7211 20.6475C88.1733 20.1786 88.7352 19.944 89.4064 19.944C90.0777 19.944 90.5971 20.1544 90.9647 20.5751C91.3323 20.9957 91.5161 21.5799 91.5161 22.3277V22.7437Z" fill="white"/>
</svg>
